<?xml version="1.0" encoding="UTF-8"?>
<svg id="Capa_2" data-name="Capa 2" xmlns="http://www.w3.org/2000/svg" xmlns:xlink="http://www.w3.org/1999/xlink" viewBox="0 0 434.26 584.56">
  <defs>
    <style>
      .cls-1 {
        fill: #fff;
      }

      .cls-2, .cls-3 {
        stroke-linejoin: round;
      }

      .cls-2, .cls-3, .cls-4 {
        stroke: #000;
        stroke-width: 2px;
      }

      .cls-2, .cls-4 {
        fill: none;
      }

      .cls-5 {
        fill: #d3a276;
      }

      .cls-6 {
        fill: #c9ff6c;
      }

      .cls-7 {
        fill: #152316;
      }

      .cls-8 {
        filter: url(#outer-glow-1);
      }

      .cls-9 {
        fill: #b9faf8;
      }

      .cls-3 {
        fill: #a2ff00;
      }

      .cls-4 {
        stroke-miterlimit: 10;
      }

      .cls-10 {
        fill: #dce5b6;
      }

      .cls-11 {
        fill: #6e44ff;
      }
    </style>
    <filter id="outer-glow-1" filterUnits="userSpaceOnUse">
      <feOffset dx="0" dy="0"/>
      <feGaussianBlur result="blur" stdDeviation="10"/>
      <feFlood flood-color="#b9faf8" flood-opacity=".85"/>
      <feComposite in2="blur" operator="in"/>
      <feComposite in="SourceGraphic"/>
    </filter>
  </defs>
  <g id="Capa_2-2" data-name="Capa 2">
    <g class="cls-8">
      <g>
        <g>
          <path d="M286.05,407.84c.65-.82,1.3-1.64,1.93-2.45l.24-.08,.58,1.65c-.91,.31-1.82,.61-2.74,.88Z"/>
          <path class="cls-7" d="M286.05,407.84c-1.13,1.42-2.3,2.85-3.48,4.31l-.98,1.2c-7.93,9.75-20.85,20.67-33.93,28.7l-4.79-26.81c2.19-.44,4.31-1.15,6.33-2.12,2.01-.96,3.89-2.17,5.6-3.6,.58,0,1.16,0,1.74-.05,3.75,.68,7.56,1.02,11.36,1.02,1.2,0,2.41-.03,3.61-.1,4.93-.28,9.81-1.13,14.55-2.55Z"/>
          <path d="M276.06,283.94c-.04,.23-.1,.45-.15,.68-.64,.2-1.28,.43-1.92,.65,.12-.56,.24-1.12,.36-1.68l1.71,.35Z"/>
          <path d="M271.4,408.65c5.65-.32,11.22-1.42,16.58-3.26-.63,.81-1.27,1.63-1.93,2.45-4.74,1.41-9.62,2.27-14.55,2.55-1.2,.07-2.41,.1-3.61,.1-3.8,0-7.61-.34-11.36-1.02,.04,0,.09,0,.13,0,1.64-.13,3.27-.48,4.9-1.05,3.27,.34,6.56,.42,9.85,.24Z"/>
          <path class="cls-1" d="M257.67,556.87c1.93,2.46,3.33,5.75,2.56,8.11-3.88,11.65-18.04,13.31-30.27,13.34,.19-4.43,1.84-8.28,4.45-11.44,5.24-6.33,14.32-9.91,23.26-10.01Z"/>
          <path d="M258.09,555.11v1.75c-.14,0-.28,0-.42,0-.49-.63-1.01-1.2-1.55-1.69,.65-.04,1.31-.06,1.96-.06Z"/>
          <path d="M261.55,408.42c-1.62,.57-3.26,.92-4.9,1.05-.04,0-.09,0-.13,0-.03,0-.06,0-.1-.02l.31-1.72c1.6,.29,3.2,.52,4.81,.68Z"/>
          <path d="M253.9,407.99l1.13,1.33c-.08,.07-.17,.14-.24,.21-.88,0-1.77-.07-2.65-.17,.61-.43,1.2-.88,1.76-1.37Z"/>
          <path d="M256.74,407.74l-.31,1.72s.06,0,.1,.02c-.58,.04-1.15,.06-1.74,.05,.08-.07,.17-.14,.24-.21l-1.13-1.33,.02-.23c.87,.03,1.75,.03,2.6-.03,.08,0,.15,0,.23-.03v.03Z"/>
          <path d="M252.25,286.98c.17,3.5-2.23,6.52-6.18,7.1-2.73,.4-5.46-1.07-6.64-3.56-1.82-3.84-.36-7.74,3.06-9.38,4.31-2.07,9.53,1.07,9.77,5.85Z"/>
          <path d="M282.57,412.15c1.19-1.46,2.36-2.89,3.48-4.31,.92-.27,1.83-.57,2.74-.88l.11,.09c-1.59,2.03-3.26,4.09-4.98,6.21l-.98,1.2c-8.12,10-21.39,21.18-34.77,29.33l-.29-.47-.23-1.26c13.09-8.03,26.01-18.95,33.93-28.7l.98-1.2Z"/>
          <path class="cls-5" d="M247.1,408.59c1.66,.3,3.34,.59,5.04,.77-1.16,.84-2.4,1.57-3.69,2.19-1.99,.96-4.11,1.65-6.29,2.05-.61-.31-1.72-.66-3.66-1.29-.6-.2-1.28-.42-1.41-.48-.17-.07-.37-.15-.59-.24-.42-.17-1.06-.41-1.64-.7-.64-.32-1.21-.71-1.36-1.1-.03-.1-.05-.22,.07-.45,.21-.4,.7-.72,1.54-.99,3.81-1.24,7.79-.52,12,.23Z"/>
          <path d="M248.03,552.07c.45-.03,.81,.29,.89,.72s-.17,.85-.58,.99l-1.41,.48c-.2-.17-.38-.39-.48-.66-.2-.5-.15-1.03,.09-1.47l1.48-.05Z"/>
          <path class="cls-1" d="M248.35,553.78c.41-.14,.65-.56,.58-.99s-.45-.75-.89-.72l-1.48,.05c.18-.35,.49-.63,.87-.79,.21-.08,.43-.12,.64-.12,.24,0,.46,.05,.68,.14,.43,.18,.76,.52,.93,.94,.36,.89-.08,1.89-.96,2.25-.62,.24-1.29,.11-1.76-.3l1.41-.48Z"/>
          <path d="M247.66,442.05l.23,1.26-1.72,.31-.11-.62c.23-.11,.4-.21,.52-.28,.36-.22,.72-.44,1.08-.66Z"/>
          <path d="M248.44,411.55c1.29-.62,2.53-1.35,3.69-2.19,.88,.1,1.77,.16,2.65,.17-1.7,1.42-3.59,2.64-5.6,3.6-2.02,.97-4.14,1.68-6.33,2.12l-.07-.43c.02-.06,.03-.11,.04-.17,.08-.47,0-.72-.68-1.05,2.17-.4,4.3-1.09,6.29-2.05Z"/>
          <path d="M250.48,551.98c.53,1.34-.11,2.85-1.45,3.39-.16,.06-.31,.1-.48,.14-.16,.03-.32,.04-.49,.04-.34,0-.69-.07-1.02-.21-.4-.17-.74-.44-1.01-.77l.92-.31c.47,.41,1.14,.54,1.76,.3,.88-.36,1.32-1.36,.96-2.25-.17-.43-.5-.76-.93-.94-.22-.09-.45-.14-.68-.14-.21,0-.43,.04-.64,.12-.38,.16-.69,.44-.87,.79l-.95,.03c.22-.72,.75-1.33,1.5-1.62,.65-.26,1.35-.25,1.99,.02,.64,.28,1.13,.78,1.39,1.42Z"/>
          <path d="M245.74,557.25l.34,.76-1.59,.72-.38-.84c.53-.24,1.07-.45,1.62-.64Z"/>
          <path d="M244.73,555.02l1,2.23c-.55,.19-1.09,.4-1.62,.64l-1.04-2.3,1.66-.58Z"/>
          <path d="M245.65,553.92c.1,.24,.23,.46,.38,.65l-1.29,.45-1.27-2.78,2.12-.07c-.18,.55-.17,1.17,.06,1.75Z"/>
          <path class="cls-11" d="M245.74,557.25l-1-2.23,1.29-.45c.27,.33,.61,.59,1.01,.77,.33,.14,.68,.21,1.02,.21,.17,0,.33-.02,.49-.04l.2,.82c-1.02,.26-2.03,.57-3.01,.93Z"/>
          <path d="M246.02,554.57c-.15-.19-.28-.42-.38-.65-.24-.58-.24-1.2-.06-1.75h0l.95-.03c-.24,.44-.29,.97-.09,1.47,.1,.27,.28,.49,.48,.66l-.92,.31Z"/>
          <path class="cls-1" d="M245.57,546.84c.4-.14,.65-.56,.57-.99-.08-.42-.43-.75-.88-.71l-1.48,.05c.18-.36,.49-.64,.86-.79,.21-.09,.43-.12,.65-.12,.24,0,.46,.04,.68,.14,.43,.17,.75,.52,.93,.94,.35,.88-.08,1.89-.96,2.24-.43,.17-.9,.17-1.33-.02-.16-.07-.31-.16-.44-.28l1.41-.48Z"/>
          <path d="M258.09,555.11c-.65,0-1.31,.02-1.96,.06-.52-.47-1.04-.86-1.54-1.16l-.28-.17-.15-.35c-1.13-2.91-2.45-6.15-3.85-9.59-2.34-5.75-4.76-11.7-6.38-16.26-.22-.6-.42-1.2-.62-1.78l.81-.24-.51-1.67,.84-.17c.35,1.07,.72,2.16,1.13,3.27,1.61,4.53,4.02,10.46,6.35,16.19,1.36,3.34,2.65,6.51,3.78,9.39,.86,.54,1.76,1.33,2.61,2.26l-.23,.2Z"/>
          <path d="M245.73,270.08c1.62-1.3,3.83-.74,5.58-.15,2.71,1.39,4.38,4.21,4.83,7.16,.06,.4,.03,.81-.35,1.28l-1.72,.31c-.52-.31-.7-.68-.78-1.06-.25-1.75-.68-3.33-1.97-4.57-.24-.27-.79-.72-.95-.87-.93-.47-2.21-.87-3.19-.71-1.49,.79-3.25,1.86-3.75,3.46l-1.06-.21c.21-2.03,1.86-3.5,3.35-4.64Z"/>
          <polygon points="244.73 555.02 243.07 555.59 242.35 553.99 241.59 552.29 243.47 552.23 244.73 555.02"/>
          <path class="cls-11" d="M242.15,531.17c-.5-1.25-1.88-1.9-3.14-1.53l-.68-2.25,4.98-1.52c.2,.58,.4,1.18,.62,1.78,1.62,4.57,4.04,10.51,6.38,16.26,1.4,3.44,2.71,6.68,3.85,9.59l.15,.35,.28,.17c.5,.3,1.02,.69,1.54,1.16-2.49,.13-4.98,.52-7.38,1.15l-.2-.82c.17-.03,.32-.08,.48-.14,1.34-.54,1.98-2.05,1.45-3.39-.26-.65-.75-1.14-1.39-1.42-.64-.27-1.34-.28-1.99-.02-.75,.3-1.28,.91-1.5,1.62h0l-2.12,.07-1.82-4.04,1.61-.56c.25,.33,.6,.59,1,.77,.33,.14,.67,.22,1.02,.22s.65-.07,.97-.19c.65-.26,1.15-.75,1.42-1.39s.28-1.34,.03-1.99c-.26-.65-.76-1.15-1.4-1.42-.64-.28-1.34-.28-1.99-.03-.17,.07-.31,.15-.45,.24l-1.34-2.16c.32,0,.65-.07,.96-.19,1.02-.41,1.63-1.39,1.63-2.42,0-.32-.06-.65-.18-.96-.53-1.34-2.04-1.98-3.38-1.45-.13,.05-.25,.11-.37,.18l-1.45-2.1c.33,0,.65-.06,.97-.19,.65-.25,1.15-.75,1.42-1.39,.14-.33,.21-.68,.21-1.02s-.06-.65-.18-.97Z"/>
          <path d="M243.62,523.95l.51,1.67-.81,.24c-.19-.56-.38-1.11-.55-1.65l.86-.26Z"/>
          <path class="cls-11" d="M243.07,555.59l1.04,2.3c-4.22,1.74-7.97,4.29-10.77,7.54l-2.31-5.7,12.05-4.14Z"/>
          <path d="M244.6,547.6c.43,.18,.9,.19,1.33,.02,.88-.35,1.31-1.36,.96-2.24-.17-.43-.5-.77-.93-.94-.22-.1-.45-.14-.68-.14-.22,0-.44,.03-.65,.12-.38,.15-.68,.43-.86,.79l-.96,.03c.02-.08,.04-.16,.08-.24,.21-.48,.54-.87,.97-1.15,.14-.09,.29-.17,.45-.24,.65-.25,1.35-.25,1.99,.03,.64,.27,1.13,.78,1.4,1.42,.25,.65,.24,1.35-.03,1.99s-.78,1.13-1.42,1.39c-.31,.12-.64,.19-.97,.19-.35,0-.69-.08-1.02-.22-.4-.17-.75-.44-1-.77l.91-.31c.13,.12,.28,.21,.44,.28Z"/>
          <path d="M246.14,545.85c.08,.43-.17,.85-.57,.99l-1.41,.48c-.21-.17-.38-.4-.48-.66-.17-.43-.17-.9,0-1.32,.02-.05,.04-.1,.08-.14l1.48-.05c.45-.04,.8,.29,.88,.71Z"/>
          <polygon points="241.65 548.19 243.47 552.23 241.59 552.29 239.99 548.76 241.65 548.19"/>
          <path class="cls-5" d="M242.9,425.33l3.15,17.67c-1.92,.99-7.32,3.4-8.84,3.9-.1,.03-.22,.07-.32,.1-4.69,1.47-15.18,3.87-18.2,2.04-.52-.31-.63-.65-.67-.8,.35-1.08,6.12-3.38,9.94-4.91,7.8-3.1,12.2-4.97,11.7-7.3-.19-.9-.67-1.59-1.42-2.03-2.37-1.4-6.95,0-11.79,1.47-3.69,1.13-8.28,2.53-9.34,1.48-.41-.4-.2-1.41-.03-1.97,.52-1.83,7.83-3.23,12.67-4.16,6.32-1.2,9.93-1.96,10.64-3.62,.26-.59,.3-1.08,.24-1.47l2.3-.41Z"/>
          <path d="M241.16,415.64c.49-.09,.78-.17,.97-.25h0c.24-.04,.48-.09,.72-.14l4.79,26.81c-.36,.23-.72,.45-1.08,.66-.12,.07-.3,.17-.52,.28l-3.15-17.67-1.74-9.69Z"/>
          <path d="M242.79,414.82l.07,.43c-.24,.05-.48,.1-.72,.14,.36-.08,.57-.32,.65-.57Z"/>
          <path d="M243.69,546.65c.1,.26,.27,.5,.48,.66l-.91,.31c-.17-.19-.29-.42-.38-.65-.23-.57-.25-1.18-.06-1.75l.96-.03s-.06,.09-.08,.14c-.18,.42-.18,.89,0,1.32Z"/>
          <polygon points="243.07 555.59 231.03 559.73 230.37 558.11 242.26 554.02 242.35 553.99 243.07 555.59"/>
          <path d="M242.79,414.82c-.09,.24-.3,.49-.65,.57,.13-.06,.22-.11,.3-.18l-.58-.65,.86-.15,.08,.42Z"/>
          <path class="cls-9" d="M242.76,524.22l-23.2,7.06-14.12,4.29c-.33-4.86-.66-9.82-.95-14.82l30.35-44.7c-.04,3.28,.07,6.43,.53,9.94,.18,1.4,.34,3.03,.49,4.61,.17,1.93,.36,3.92,.6,5.52,1.5,9.79,2.87,17.75,6.29,28.1Z"/>
          <path class="cls-1" d="M242.79,539.9c.41-.14,.65-.56,.58-.99-.08-.42-.43-.75-.89-.71l-1.48,.05c.17-.35,.48-.63,.86-.79,.21-.09,.43-.12,.64-.12,.69,0,1.34,.41,1.61,1.08,.36,.88-.08,1.89-.96,2.24-.43,.17-.9,.17-1.32,0-.17-.07-.31-.17-.45-.29l1.41-.48Z"/>
          <polygon points="241.59 552.29 242.35 553.99 242.26 554.02 228.9 554.47 228.22 552.82 228.39 552.75 241.59 552.29"/>
          <path d="M241.65,548.19l-1.3-2.88,2.46-.09c-.19,.58-.17,1.19,.06,1.75,.1,.24,.22,.46,.38,.65l-1.61,.56Z"/>
          <polygon class="cls-11" points="242.26 554.02 230.37 558.11 228.9 554.47 242.26 554.02"/>
          <path d="M242.03,415.4s.07,0,.1-.02c-.03,0-.07,.02-.1,.02Z"/>
          <path d="M242.44,415.2c-.08,.07-.17,.12-.3,.18h0s-.07,.02-.1,.02c0,0-.02,0-.03,0l-.14-.86,.58,.65Z"/>
          <path d="M244.92,538.11c.12,.31,.18,.64,.18,.96,0,1.03-.61,2.01-1.63,2.42-.31,.12-.64,.19-.96,.19-.35,0-.7-.07-1.03-.22-.4-.17-.74-.44-1-.77l.91-.31c.13,.12,.28,.22,.45,.29,.42,.17,.89,.18,1.32,0,.88-.35,1.32-1.36,.96-2.24-.27-.67-.92-1.08-1.61-1.08-.21,0-.43,.03-.64,.12-.38,.16-.69,.44-.86,.79h0l-.95,.03c.17-.59,.58-1.13,1.13-1.45,.11-.07,.24-.13,.37-.18,1.34-.53,2.85,.11,3.38,1.45Z"/>
          <path d="M241.86,414.54l.14,.86s-.1,0-.15,0v-.86h0Z"/>
          <polygon points="241.86 414.54 241.85 414.55 241.85 414.54 241.86 414.54"/>
          <path d="M241.85,414.52l-.14-.83c.05,0,.1-.02,.14-.02v.85Z"/>
          <path d="M242.79,414.82l-.08-.42-.86,.15h0v-.87s-.09,0-.14,.02h0c.15-.03,.3-.06,.45-.09,.69,.32,.76,.58,.68,1.05,0,.05-.03,.1-.04,.17Z"/>
          <polygon class="cls-11" points="241.59 552.29 228.39 552.75 239.99 548.76 241.59 552.29"/>
          <path class="cls-11" d="M242.89,544.99c-.03,.08-.06,.16-.08,.24l-2.46,.09-1.78-3.95,1.91-.66c.26,.33,.6,.59,1,.77,.33,.15,.68,.22,1.03,.22l1.34,2.16c-.43,.28-.76,.67-.97,1.15Z"/>
          <path d="M241.45,415.19c-.13-.08-.28-.27-.32-.52l.72-.12v.86c.05,0,.1,0,.15,0,0,0,.02,0,.03,0,.03,0,.07,0,.1-.02-.19,.09-.48,.17-.97,.25l-.11-.62c.19,.07,.33,.13,.4,.17Z"/>
          <path d="M241.85,414.55l-.72,.12c-.03-.11-.03-.24,0-.38s.1-.25,.18-.35l.53,.59v.02Z"/>
          <path class="cls-11" d="M239.73,534.74l1.45,2.1c-.56,.32-.96,.86-1.13,1.45h0l-2.81,.1-1.74-3.86,2.21-.77h0c.25,.33,.6,.59,1,.77,.33,.14,.67,.21,1.02,.21Z"/>
          <path d="M238.79,414.24c1.27-.18,2.37-.35,2.64-.45-.03,0-.09,.04-.15,.1l.04,.05c-.08,.1-.15,.21-.18,.35s-.03,.27,0,.38l-.13,.03,.05,.31c-.54-.21-1.48-.52-2.26-.78Z"/>
          <path d="M241.45,415.19c-.07-.04-.21-.1-.4-.17l-.05-.31,.13-.03c.04,.24,.19,.44,.32,.52Z"/>
          <path d="M240.91,539.71c-.2-.5-.15-1.03,.09-1.46h0l1.48-.05c.46-.04,.81,.29,.89,.71,.08,.43-.17,.85-.58,.99l-1.41,.48c-.21-.17-.38-.4-.48-.66Z"/>
          <path d="M238.12,532.78c-.13-.32-.15-.66-.08-.98l1.41-.49c.45-.16,.95,.08,1.11,.54,.16,.45-.09,.95-.54,1.11l-1.41,.48c-.21-.17-.38-.4-.49-.66Z"/>
          <polygon points="238.57 541.35 240.35 545.31 238.46 545.37 236.91 541.92 238.57 541.35"/>
          <path d="M240.1,540.04c.1,.24,.23,.46,.38,.65l-1.91,.66-1.34-2.97,2.81-.1c-.18,.55-.17,1.17,.06,1.75Z"/>
          <path d="M241,538.25c-.24,.43-.29,.96-.09,1.46,.1,.26,.27,.5,.48,.66l-.91,.31c-.16-.19-.29-.42-.38-.65-.24-.58-.24-1.2-.06-1.75h0l.95-.03Z"/>
          <path class="cls-1" d="M241.34,531.5c.35,.88-.08,1.89-.96,2.24-.43,.17-.9,.17-1.33-.02-.16-.07-.31-.17-.44-.28l1.41-.48c.45-.16,.7-.65,.54-1.11-.16-.46-.65-.7-1.11-.54l-1.41,.49c.1-.56,.48-1.05,1.05-1.27,.21-.08,.42-.12,.64-.12,.68,0,1.34,.41,1.61,1.09Z"/>
          <polygon points="239.49 547.08 239.24 547.09 238.46 545.37 240.35 545.31 241.65 548.19 239.99 548.76 239.27 547.15 239.49 547.08"/>
          <polygon points="239.49 547.08 239.27 547.15 239.24 547.09 239.49 547.08"/>
          <polygon class="cls-11" points="239.27 547.15 227.56 551.18 226.08 547.54 239.24 547.09 239.27 547.15"/>
          <polygon points="238.46 545.37 239.24 547.09 226.08 547.54 225.4 545.89 225.61 545.81 238.46 545.37"/>
          <path class="cls-11" d="M238.76,529.73c-1,.4-1.62,1.36-1.62,2.38l-2.37,.81-1.76-3.91,5.33-1.62,.68,2.25c-.08,.03-.17,.05-.24,.09Z"/>
          <polygon class="cls-11" points="236.91 541.92 238.46 545.37 225.61 545.81 236.91 541.92"/>
          <path d="M237.14,532.11c0-1.02,.62-1.98,1.62-2.38,.08-.03,.17-.06,.24-.09,1.27-.38,2.65,.28,3.14,1.53,.12,.31,.18,.64,.18,.97s-.07,.69-.21,1.02c-.27,.64-.78,1.13-1.42,1.39-.31,.13-.64,.19-.97,.19-.35,0-.69-.07-1.02-.21-.4-.17-.75-.44-1-.77l.91-.31c.13,.11,.28,.21,.44,.28,.43,.18,.9,.18,1.33,.02,.88-.36,1.31-1.36,.96-2.24-.27-.68-.93-1.09-1.61-1.09-.22,0-.43,.04-.64,.12-.57,.23-.94,.72-1.05,1.27l-.91,.31Z"/>
          <path class="cls-5" d="M234.71,416.59c1.2-.18,2.27-.33,3.15-.45,1.63-.23,2.65-.38,3.3-.5l1.74,9.69-2.3,.41c-.06-.32-.18-.58-.32-.77-1.08-1.49-4.09-1.31-9.31-.86-4.93,.43-11.06,.96-12.41-1.31-.32-.55-.24-.9-.12-1.13,1.22-2.51,10.21-4.17,16.26-5.08Z"/>
          <path d="M237.7,533.76c-.16-.19-.28-.42-.38-.65-.13-.32-.19-.66-.18-1l.91-.31c-.07,.31-.05,.65,.08,.98,.1,.26,.28,.49,.49,.66l-.91,.31h0Z"/>
          <polygon points="235.49 534.53 237.22 538.39 235.35 538.45 233.83 535.09 235.49 534.53"/>
          <path d="M237.32,533.1c.1,.24,.22,.46,.38,.65l-2.21,.77-.72-1.61,2.37-.81c0,.33,.05,.67,.18,1Z"/>
          <path d="M238.12,447.91c-.03-.46-.17-.89-.79-.93-.18,0-.32,0-.45,.04v-.02c.1-.03,.22-.07,.32-.1,1.52-.5,6.92-2.92,8.84-3.9l.11,.62,1.72-.31,.29,.47c-.24,.15-.46,.29-.7,.43-1.18,.71-7.14,3.41-9.37,4.23h0v-.12l.03-.4h-.02Z"/>
          <path d="M237.63,455.34c-.31,4.63-.65,9.91-.8,13.64-.09,2.04-.17,3.94-.22,5.78l-.86-.03-.9,1.32c.03-2.27,.12-4.6,.24-7.15,.15-3.57,.47-8.57,.77-13.06,0,0,0-.06,0-.16,0-.04,0-.1,0-.14,0-.03,0-.05,0-.08,.11-1.75,.23-3.4,.33-4.85l.11-1.64c.87-.24,1.41-.41,1.43-.42,.1-.03,.23-.08,.36-.12l-.45,6.6c0,.1-.02,.21-.03,.31Z"/>
          <polygon points="237.22 538.39 238.57 541.35 236.91 541.92 236.19 540.32 236.71 540.14 236.12 540.16 235.35 538.45 237.22 538.39"/>
          <polygon points="236.71 540.14 236.19 540.32 236.12 540.16 236.71 540.14"/>
          <path d="M242.76,524.22c-3.42-10.35-4.79-18.32-6.29-28.1-.24-1.6-.43-3.59-.6-5.52-.15-1.58-.31-3.21-.49-4.61-.46-3.51-.58-6.66-.53-9.94l.9-1.32,.86,.03c-.08,3.69,0,7.13,.5,11.01,.19,1.43,.35,3.08,.5,4.68,.17,1.9,.36,3.87,.59,5.41,1.48,9.73,2.85,17.65,6.26,27.94l-.84,.17-.86,.26Z"/>
          <path d="M237.33,446.98c.63,.04,.77,.47,.79,.93h.02l-.03,.4v.11h0c-.13,.05-.25,.1-.36,.13-.03,0-.56,.17-1.43,.42v-.03c0-.11,.02-.23,.03-.33,.03-.49,.05-.79,.05-.82h.03c.07-.44,.19-.67,.46-.77,.12-.04,.26-.05,.45-.04Z"/>
          <path class="cls-5" d="M231.12,425.85c2.86-.24,7.18-.62,7.74,.14,.03,.05,.02,.24-.1,.52-.47,.91-5.83,1.93-9.38,2.61-7.97,1.52-13.25,2.71-14.01,5.4-.48,1.66-.31,2.91,.49,3.69,1.8,1.76,6.09,.46,11.07-1.06,4.07-1.24,8.69-2.65,10.4-1.64,.32,.19,.52,.48,.6,.86-.21,1.2-6.73,3.8-10.63,5.35-7.48,2.98-11.37,4.63-11.02,6.73,.16,.86,.66,1.59,1.48,2.09,1.07,.65,2.7,.9,4.57,.9,4.78,0,11.17-1.66,13.98-2.46l-.11,1.64c-.1,1.45-.22,3.1-.33,4.85,0,.03,0,.05,0,.08,0,.04,0,.1,0,.14,0,.1,0,.15,0,.16-.3,4.49-.62,9.49-.77,13.06-.11,2.55-.21,4.88-.24,7.15l-30.35,44.7c-1.2-20.83-1.68-42.32,1.28-60.29,.07-.43,.15-.86,.23-1.3,.65-3.8,1.41-8.11-.24-12.05-2.07-4.91-5.88-7.97-10.48-8.39-4.77-.43-9.66,2.08-12.47,6.38-4.87,7.47-.27,35.26,1.47,42.45,2.33,9.63,3.34,19.44,3.88,28.46l-35.75-42.25c-.15-6.27-.39-12.6-.64-19.1-.4-10.56-.81-21.49-.9-33.57,0-.33,.02-1.83,.03-2.96l.02-1.2c.03-3.75,.2-7.45,.37-11.01,.08-1.79,.17-3.56,.23-5.33,.19-5.26,.33-9.07,1.76-15.11,.17-.75,.35-1.49,.52-2.25,1.09-4.77,2.22-9.7,6.01-19.46,.38-.99,.17-2.07-.58-2.91-.88-1-2.33-1.44-3.61-1.11-9.22,2.4-30.86,.95-37.97,.48-.86-.06-1.53-.1-1.96-.12-12.64-.72-18.27-2.91-27.59-6.54l-1.55-.61c-4.71-1.82-7.53-4.14-11.09-7.06-.45-.37-.91-.75-1.39-1.13-2.34-1.9-3.74-3.85-5.51-6.3-.35-.48-.71-.98-1.08-1.49-1.53-6.32-2.67-12.81-3.41-19.28-.58-5.12-.93-10.32-1-15.5,6.08,16.63,19.07,31.51,34.18,37.6,12.54,5.05,25.65,4.17,38.32,3.33,2.07-.13,4.15-.27,6.22-.38,5.73-.31,11.58,.02,17.23,.34,4.51,.25,9.18,.52,13.78,.46l.13-1.74c-.85-.14-1.7-.28-2.55-.41-5.67-.9-11.01-1.75-15.81-4.67-11.2-6.83-18.88-19.11-19.55-31.29-1.2-21.63-.76-38.94,1.37-54.4,10.83-.95,21.05-7.14,30.94-13.13,2.3-1.39,4.5-2.72,6.68-3.97-2.9,5.64-5.03,11.63-6.35,17.84l-.31,1.51,1.46-.51c16.02-5.5,31.08-11.65,39.14-26.22,.6-1.08,1.3-2.97,2.19-5.36,2.28-6.14,6.12-16.4,10.16-15.87,5.6,.74,10.68,12.72,15.15,23.28,3.18,7.51,6.18,14.6,9.31,17.68,1.2,1.19,2.57,2.45,4.01,3.8,8,7.44,18.95,17.63,16.97,28.08-.16,.84-.4,1.67-.65,2.56-.66,2.32-1.35,4.72-.47,7.1l.29,.77,.79-.24c1.77-.54,3.58-1.25,5.32-1.92,1-.39,2.02-.79,3.04-1.16-3.57,16.74-9.19,31.24-16.72,43.11-3.47,5.46-10.39,11.61-15.43,13.69-2.7,1.12-9.76,1.6-15.44,1.98-8.72,.59-10.81,.86-11.24,2.03-.15,.43-.03,.89,.34,1.24l.25,.24h.35c2.98,0,5.94-.31,8.82-.6,2.96-.3,5.78-.57,8.57-.58,12.96,.03,27.63,.05,41.59,5.34,14.08,5.33,23.6,11.77,24.24,25.85,.49,10.57-4.56,19.01-11.36,27.81-5.36,1.84-10.93,2.94-16.58,3.26-3.28,.18-6.57,.1-9.85-.24,4.38-1.51,8.72-4.58,13.16-9.3,2.56-2.73,6.14-6.97,7.64-12.16,1.5-5.23,.5-10.63-2.62-14.1-2.84-3.13-7.06-4.47-10.8-5.47-13.55-3.62-26.9-5.24-39.7-4.78-1.97,.07-3.98,.34-5.24,1.82-1.32,1.56-1.17,3.75-.85,5.67,1.11,6.72,2.98,13.35,4.78,19.76,1.65,5.89,3.36,11.99,4.48,18.11-.15,.17-.27,.34-.38,.55-.33,.62-.38,1.27-.16,1.88,.21,.56,.64,1.03,1.16,1.41,.24,1.48,.41,2.49,.55,3.18-8.04,1.24-15.22,2.86-16.69,5.91-.3,.62-.51,1.6,.19,2.78,1.9,3.21,8.35,2.65,14.05,2.16Zm24.66-147.48c.38-.47,.41-.88,.35-1.28-.45-2.95-2.11-5.77-4.83-7.16-1.75-.59-3.95-1.15-5.58,.15-1.49,1.14-3.14,2.62-3.35,4.64l1.06,.21c.5-1.6,2.25-2.66,3.75-3.46,.98-.17,2.26,.24,3.19,.71,.16,.15,.71,.6,.95,.87,1.29,1.25,1.72,2.83,1.97,4.57,.08,.38,.25,.75,.78,1.06l1.72-.31Zm-9.72,15.71c3.95-.58,6.36-3.6,6.18-7.1-.24-4.78-5.46-7.92-9.77-5.85-3.41,1.64-4.87,5.54-3.06,9.38,1.19,2.49,3.91,3.96,6.64,3.56Zm-18.19,15.6c.31-2.51-.36-4.71-1.99-6.56-3.72-4.17-11.4-5.26-15.31-5.19-2.09,.02-4.19,.18-6.22,.34-3.35,.25-6.83,.52-10.18,.13-1.61-.18-3.43-.67-5.36-1.2-4.03-1.08-8.61-2.31-12.29-.89-1.45,.57-2.59,1.61-3.4,3.08-.81,1.47-1.3,3.38-1.43,5.68-.05,1.02-.03,2.09,.05,3.16,.42,5.02,2.16,9.82,5.05,13.89,5.1,7.21,13.5,11.31,22.17,11.31,2.92,0,5.88-.47,8.76-1.44,8.91-3,18.89-12.17,20.17-22.32Zm-59.14-45.4c.21-.59,.16-1.23,0-1.81-.23-.53-.62-.93-.96-1.34-.99-1.04-1.86-1.8-3.02-2.56-3.68-1.68-8.07-.52-11.25,1.75-1.47,1.07-2.78,2.96-3.94,4.32l.82,.79c2.14-2,3.79-3.89,6.52-4.73,2-.66,5.54-.97,7,.35,.7,.58,1.34,1.18,1.86,1.82,.42,.51,.63,1.03,1.25,1.31,.19,.13,.33,.28,.61,.42l1.1-.31Zm-5.62,16.39c2.44-1.14,4.23-4.41,3.9-7.07-.68-5.46-5.71-8.23-10.68-5.87-2.43,1.16-4.22,4.43-3.87,7.11,.71,5.41,5.7,8.14,10.64,5.83Z"/>
          <polygon class="cls-11" points="236.12 540.16 236.19 540.32 224.74 544.25 223.26 540.6 236.12 540.16"/>
          <polygon points="235.35 538.45 236.12 540.16 223.26 540.6 222.6 538.97 222.84 538.87 235.35 538.45"/>
          <path d="M241.16,415.64c-.65,.12-1.67,.27-3.3,.5-.88,.12-1.96,.27-3.15,.45l-.03-.25c.52-.08,.73-.11,.68-1.11h.02s0-.05-.03-.11c0-.11-.02-.24-.03-.38,.77-.11,1.54-.23,2.3-.33,.39-.05,.79-.11,1.17-.17,.79,.25,1.72,.57,2.26,.78l.11,.62Z"/>
          <polygon points="234.76 532.92 235.49 534.53 233.83 535.09 233.11 533.5 234.76 532.92"/>
          <polygon class="cls-11" points="235.35 538.45 222.84 538.87 233.83 535.09 235.35 538.45"/>
          <path d="M235.08,412.91c-.08-.54-.17-1.17-.28-1.9l.05-.11c.58,.29,1.22,.53,1.64,.7,.23,.09,.43,.17,.59,.24,.13,.06,.81,.28,1.41,.48,1.94,.63,3.05,.99,3.66,1.29l-.45,.08h0c-.12,.05-.27,.13-.39,.26l-.04-.05c.06-.05,.12-.09,.15-.1-.26,.1-1.36,.26-2.64,.45-.31-.1-.59-.19-.83-.27-.89-.3-1.36-.45-1.55-.53-.15-.06-.33-.13-.54-.21-.24-.1-.51-.19-.79-.31Z"/>
          <path d="M233.57,415c-.14-.69-.31-1.69-.55-3.18,.62,.45,1.37,.81,2.06,1.09,.11,.78,.19,1.37,.24,1.82-.58,.09-1.17,.17-1.75,.26Z"/>
          <path d="M234.8,411.01c.11,.73,.2,1.36,.28,1.9-.69-.28-1.44-.64-2.06-1.09,0-.07-.03-.13-.03-.2l.14-.03c-.02-.1-.03-.21-.05-.32l1.73-.26Z"/>
          <path d="M233.34,565.43c2.8-3.26,6.56-5.81,10.77-7.54l.38,.84,1.59-.72-.34-.76c.98-.36,1.99-.66,3.01-.93,2.4-.64,4.89-1.02,7.38-1.15,.53,.5,1.06,1.07,1.55,1.69-8.95,.1-18.03,3.68-23.26,10.01l-.49-.03-.58-1.42Z"/>
          <polygon points="233 529.01 234.76 532.92 233.11 533.5 231.32 529.52 233 529.01"/>
          <path d="M233.34,565.43l.58,1.42-1.62,.65-.2-.5c.39-.54,.8-1.07,1.24-1.58Z"/>
          <path d="M235.37,415.22h-.02c.05,1-.17,1.04-.68,1.12-.13,.02-.24,.03-.34,.03-.3,0-.46-.16-.65-.88h0s0-.03,0-.07c-.03-.12-.06-.26-.1-.42,.58-.09,1.16-.17,1.75-.26,.02,.14,.03,.26,.03,.38,.02,.06,.02,.1,.03,.1Z"/>
          <path d="M231.03,559.73l2.31,5.7c-.44,.52-.85,1.04-1.24,1.58l-2.72-6.71,1.65-.57Z"/>
          <polygon class="cls-11" points="231.32 529.52 233.11 533.5 221.94 537.34 220.14 532.92 231.32 529.52"/>
          <polygon points="232.78 528.52 233 529.01 231.32 529.52 231.19 529.24 232.78 528.52"/>
          <path d="M232.78,528.52l-1.59,.72,.13,.28-11.18,3.4-.36-.89-.23-.75,23.2-7.06c.17,.54,.36,1.09,.55,1.65l-4.98,1.52-5.33,1.62-.22-.49Z"/>
          <polygon points="230.37 558.11 231.03 559.73 229.38 560.3 228.71 558.68 230.37 558.11"/>
          <polygon points="228.9 554.47 230.37 558.11 228.71 558.68 227.04 554.54 228.9 554.47"/>
          <path d="M228.21,578.3c.28,0,.57,.02,.86,.02h.89c0,.29-.02,.58-.02,.87h-1.75c0-.3,0-.59,.02-.89Z"/>
          <path d="M229.7,578.32h-.64c-.29,0-.58,0-.86-.02,.17-4.3,1.6-8.09,3.89-11.29l.2,.5,1.62-.65,.49,.03c-2.61,3.16-4.26,7-4.45,11.44h-.25Z"/>
          <path class="cls-11" d="M229.38,560.3l2.72,6.71c-2.3,3.2-3.72,6.98-3.89,11.29-6.72-.31-12.21-3.96-17.28-7.69-4.02-2.97-4.05-7.7-4.08-12.27,0-1.14-.02-2.23-.08-3.28-.29-4.65-.62-9.42-.98-14.47-.08-1.07-.15-2.15-.23-3.23l12.9-3.93,1.82,4.48-1.21,.42c-.69-.87-1.9-1.23-2.99-.79-.65,.26-1.15,.75-1.42,1.39-.28,.64-.28,1.34-.03,1.99,.41,1.01,1.39,1.63,2.42,1.63l1.35,2.16c-.43,.27-.77,.67-.97,1.15-.27,.64-.28,1.34-.03,1.99,.41,1.01,1.39,1.63,2.42,1.63l1.35,2.16c-.43,.29-.77,.68-.97,1.16-.28,.64-.29,1.34-.03,1.99,.26,.64,.75,1.14,1.39,1.42,.33,.14,.68,.21,1.03,.21l1.35,2.16c-.43,.28-.77,.67-.97,1.15-.27,.64-.28,1.34-.02,1.99,.25,.65,.75,1.15,1.39,1.42,.32,.14,.67,.21,1.02,.21,.32,0,.65-.06,.97-.18,.65-.26,1.14-.75,1.42-1.39,.13-.32,.2-.65,.21-1l1.41-.49Z"/>
          <path d="M260.23,564.98c.78-2.36-.63-5.65-2.56-8.11,.14,0,.28,0,.42,0v-1.75l.23-.2c2.6,2.91,4.67,7.29,3.56,10.62-4.87,14.66-24.45,14.57-32.82,14.54-.31,0-.61,0-.91-.03l.04-.85h1.75c0-.3,0-.58,.02-.87,12.23-.03,26.4-1.69,30.27-13.34Z"/>
          <path d="M228.71,558.68l.66,1.62-1.41,.49c0-.33-.06-.67-.19-1-.1-.24-.22-.46-.38-.65l1.32-.45Z"/>
          <polygon points="228.9 554.47 227.04 554.54 225.9 551.75 227.56 551.18 228.22 552.82 228.9 554.47"/>
          <polygon points="227.56 551.18 239.27 547.15 239.99 548.76 228.39 552.75 228.22 552.82 227.56 551.18"/>
          <polygon points="227.56 551.18 225.9 551.75 224.22 547.6 226.08 547.54 227.56 551.18"/>
          <path d="M227.78,559.79c.13,.32,.19,.66,.19,1l-.92,.31c.07-.32,.05-.66-.08-.99-.1-.26-.28-.5-.49-.66l.91-.31c.17,.19,.29,.42,.38,.65Z"/>
          <path d="M224.54,561.04c-.16-.45,.09-.95,.54-1.11l1.41-.48c.21,.17,.38,.4,.49,.66,.13,.32,.15,.66,.08,.99l-1.41,.48c-.09,.03-.18,.04-.28,.04-.37,0-.7-.23-.83-.58Z"/>
          <path d="M224.58,304.29c1.29,1.45,1.82,3.19,1.57,5.18-.59,4.71-3.33,9.27-6.94,12.99-.29-.27-.58-.54-.86-.8-2.51-2.37-4.9-4.61-8.54-5.74-3.81-1.18-8.02-1.43-12.54-.73-6.32,.96-12.84,3.4-18.39,6.86-.24-.3-.46-.6-.68-.91-2.7-3.81-4.33-8.32-4.73-13.03-.05-.6-.07-1.21-.07-1.82,0-.38,0-.74,.03-1.1,.16-2.7,.93-6.14,3.73-7.23,.99-.38,2.06-.54,3.2-.54,2.5,0,5.28,.75,8.01,1.48,2,.54,3.88,1.05,5.61,1.25,3.52,.41,7.08,.14,10.52-.13,2-.16,4.08-.31,6.1-.33h.21c4.71,0,10.95,1.42,13.78,4.6Z"/>
          <polygon points="225.4 545.89 226.08 547.54 224.22 547.6 223.09 544.83 224.74 544.25 225.4 545.89"/>
          <polygon points="225.61 545.81 225.4 545.89 224.74 544.25 236.19 540.32 236.91 541.92 225.61 545.81"/>
          <path class="cls-11" d="M226.39,558.37c-.64-.28-1.34-.29-1.99-.03-.16,.06-.31,.15-.45,.24l-1.35-2.16c.32,0,.65-.06,.96-.19,.65-.25,1.15-.75,1.42-1.39,.03-.08,.06-.16,.09-.24l1.97-.06,1.68,4.14-1.32,.45c-.25-.33-.6-.59-1-.77Z"/>
          <path d="M224.62,552.2c.16,.19,.29,.42,.38,.65,.23,.57,.25,1.19,.06,1.75l-.97,.03s.06-.1,.08-.14c.18-.43,.19-.9,.02-1.33-.1-.27-.27-.5-.49-.66l.92-.31Z"/>
          <polygon points="223.26 540.6 224.74 544.25 223.09 544.83 221.41 540.66 223.26 540.6"/>
          <path d="M223.99,364.44c1.26-1.48,3.26-1.75,5.24-1.82,12.81-.46,26.15,1.15,39.7,4.78,3.74,1,7.96,2.34,10.8,5.47,3.12,3.47,4.12,8.87,2.62,14.1-1.5,5.19-5.08,9.43-7.64,12.16-4.43,4.71-8.77,7.79-13.16,9.3-1.61-.17-3.21-.39-4.81-.68v-.03c5.54-.52,11.01-3.72,16.69-9.78,3.88-4.13,6.17-7.77,7.24-11.44,1.34-4.66,.48-9.43-2.24-12.45-2.51-2.78-6.45-4.02-9.95-4.95-13.37-3.59-26.56-5.17-39.19-4.72-1.47,.05-3.1,.19-3.96,1.2-.86,1.02-.73,2.65-.46,4.26,1.1,6.63,2.94,13.21,4.73,19.58,1.6,5.69,3.25,11.57,4.37,17.51,.21-.09,.4-.15,.58-.21,1.68-.55,3.39-.75,5.11-.75,2.58,0,5.19,.46,7.74,.92,2.15,.38,4.35,.78,6.51,.89l-.02,.23c-.57,.49-1.15,.94-1.76,1.37-1.69-.17-3.38-.47-5.04-.77-4.22-.75-8.2-1.47-12-.23-.84,.27-1.33,.58-1.54,.99-.12,.23-.1,.35-.07,.45,.15,.39,.72,.78,1.36,1.1l-.05,.11-1.73,.26c.02,.11,.03,.22,.05,.32l-.14,.03c0,.07,.03,.13,.03,.2-.52-.38-.95-.86-1.16-1.41-.23-.6-.17-1.26,.16-1.88,.11-.21,.24-.38,.38-.55-1.12-6.12-2.83-12.21-4.48-18.11-1.8-6.42-3.67-13.04-4.78-19.76-.32-1.93-.47-4.11,.85-5.67Z"/>
          <path d="M225,552.85c-.1-.24-.23-.46-.38-.65l1.28-.45,1.13,2.79-1.97,.06c.19-.57,.17-1.19-.06-1.75Z"/>
          <path class="cls-1" d="M225.37,559.02c.23,0,.46,.05,.68,.14,.16,.07,.31,.17,.44,.29l-1.41,.48c-.45,.16-.7,.65-.54,1.11,.13,.36,.46,.58,.83,.58,.1,0,.19,0,.28-.04l1.41-.48c-.1,.55-.49,1.03-1.05,1.26-.43,.17-.89,.17-1.32-.02-.42-.18-.75-.52-.93-.94-.17-.43-.17-.9,.02-1.32,.18-.43,.52-.76,.94-.93,.21-.09,.43-.13,.65-.13Z"/>
          <path d="M224.19,553.17c.17,.43,.17,.9-.02,1.33-.02,.04-.04,.1-.08,.14l-1.48,.05c-.46,.03-.81-.3-.89-.72-.08-.43,.17-.85,.58-.99l1.4-.48c.22,.17,.38,.39,.49,.66Z"/>
          <path d="M224.4,558.34c.65-.26,1.35-.25,1.99,.03,.4,.17,.75,.44,1,.77l-.91,.31c-.13-.12-.28-.22-.44-.29-.22-.09-.45-.14-.68-.14s-.44,.04-.65,.13c-.43,.17-.76,.5-.94,.93-.18,.42-.18,.89-.02,1.32,.17,.43,.51,.76,.93,.94,.43,.18,.89,.19,1.32,.02,.56-.23,.94-.71,1.05-1.26l.92-.31c0,.34-.08,.67-.21,1-.28,.64-.78,1.13-1.42,1.39-.31,.12-.65,.18-.97,.18-.35,0-.7-.07-1.02-.21-.64-.27-1.13-.78-1.39-1.42-.26-.65-.25-1.35,.02-1.99,.2-.48,.54-.87,.97-1.15,.14-.09,.3-.17,.45-.24Z"/>
          <path d="M224.22,547.6l-1.92,.06c.08-.25,.12-.52,.12-.78,0-.33-.06-.66-.19-.98-.1-.24-.23-.46-.38-.65l1.25-.43,1.13,2.78Z"/>
          <polygon points="222.6 538.97 223.26 540.6 221.41 540.66 220.28 537.91 221.94 537.34 222.6 538.97"/>
          <polygon points="222.84 538.87 222.6 538.97 221.94 537.34 233.11 533.5 233.83 535.09 222.84 538.87"/>
          <path class="cls-11" d="M224.22,547.6l1.68,4.15-1.28,.45c-.26-.33-.6-.59-1-.77-.64-.27-1.34-.28-1.99-.03-.16,.07-.31,.15-.45,.24l-1.35-2.16c.32,0,.65-.06,.97-.19,.65-.25,1.14-.75,1.42-1.39,.03-.08,.06-.16,.09-.24l1.92-.06Z"/>
          <polygon points="220.14 532.92 221.94 537.34 220.28 537.91 218.46 533.43 220.14 532.92"/>
          <path class="cls-1" d="M220.99,554.46c-.17-.43-.17-.89,.02-1.32,.17-.43,.52-.75,.94-.93,.21-.08,.43-.12,.65-.12s.45,.04,.67,.14c.16,.07,.31,.16,.44,.28l-1.4,.48c-.41,.14-.65,.56-.58,.99,.08,.42,.43,.75,.89,.72l1.48-.05c-.17,.35-.49,.63-.86,.78-.88,.36-1.89-.07-2.24-.96Z"/>
          <path d="M221.34,547.7c.24-.44,.28-.97,.09-1.47l-.49-.67,.91-.31c.16,.19,.29,.41,.38,.65,.13,.31,.19,.65,.19,.98,0,.26-.04,.52-.12,.78l-.96,.03Z"/>
          <path d="M221.42,546.23c.19,.5,.15,1.03-.09,1.47l-1.49,.05h-.03c-.42,0-.79-.3-.86-.72-.08-.42,.17-.84,.57-.99l1.41-.49,.49,.67Z"/>
          <path d="M220.18,554.79c-.26-.65-.25-1.35,.03-1.99,.2-.48,.54-.87,.97-1.16,.14-.09,.3-.17,.45-.24,.65-.25,1.35-.24,1.99,.03,.4,.17,.74,.44,1,.77l-.92,.31c-.13-.12-.28-.21-.44-.28-.22-.1-.45-.14-.67-.14s-.44,.04-.65,.12c-.43,.17-.77,.5-.94,.93-.18,.43-.19,.89-.02,1.32,.36,.89,1.36,1.32,2.24,.96,.38-.15,.69-.43,.86-.78l.97-.03c-.03,.08-.05,.16-.09,.24-.27,.64-.78,1.13-1.42,1.39-.31,.13-.64,.19-.96,.19-.35,0-.7-.07-1.03-.21-.64-.28-1.13-.79-1.39-1.42Z"/>
          <polygon points="219.78 532.03 220.14 532.92 218.46 533.43 218.17 532.69 219.78 532.03"/>
          <path class="cls-11" d="M219.51,540.72l1.89-.06,1.68,4.16-1.25,.43c-.7-.87-1.9-1.23-2.99-.79-.16,.06-.31,.14-.45,.24l-1.35-2.16c.32,0,.65-.06,.96-.18,.65-.26,1.15-.75,1.42-1.39,.03-.08,.07-.16,.09-.24Z"/>
          <path d="M220.04,323.2l-1.16,1.3c-.31-.28-.62-.55-.92-.83,.43-.39,.85-.8,1.25-1.22,.27,.25,.55,.5,.83,.75Z"/>
          <path d="M219.07,538.32l1.21-.42,1.13,2.76-1.89,.06c.09-.26,.13-.52,.13-.79,0-.32-.06-.65-.19-.96-.1-.24-.23-.46-.38-.65Z"/>
          <path class="cls-1" d="M218.21,547.53c-.17-.44-.17-.9,.02-1.33,.18-.42,.52-.75,.94-.93,.21-.08,.43-.12,.65-.12,.13,0,.26,.02,1.12,.41l-1.41,.49c-.4,.15-.65,.57-.57,.99,.07,.42,.44,.72,.86,.72h.03l1.49-.05c-.18,.34-.49,.63-.88,.79-.88,.35-1.89-.08-2.24-.96Z"/>
          <path d="M219.64,539.94c0,.26-.04,.52-.13,.79l-.96,.03s.06-.1,.08-.14c.17-.42,.18-.89,0-1.32l-.48-.66,.91-.31c.16,.19,.29,.41,.38,.65,.13,.31,.19,.64,.19,.96Z"/>
          <path d="M217.04,540.81c-.42,0-.79-.3-.86-.71-.08-.43,.17-.85,.58-.99l1.41-.48,.48,.66c.17,.43,.17,.9,0,1.32-.02,.04-.04,.1-.08,.14l-1.48,.05h-.03Z"/>
          <path d="M218.17,532.69l.3,.73-12.9,3.93c-.03-.59-.08-1.19-.12-1.79l14.12-4.29,.23,.75-1.62,.66Z"/>
          <path d="M218.23,546.2c-.18,.43-.18,.89-.02,1.33,.36,.88,1.36,1.31,2.24,.96,.39-.16,.7-.45,.88-.79l.96-.03c-.03,.08-.05,.16-.09,.24-.28,.64-.78,1.13-1.42,1.39-.31,.13-.65,.19-.97,.19-1.03,0-2.01-.62-2.42-1.63-.25-.65-.24-1.35,.03-1.99,.2-.48,.54-.88,.97-1.15,.14-.1,.3-.17,.45-.24,1.09-.45,2.3-.09,2.99,.79l-.91,.31c-.86-.39-.99-.41-1.12-.41-.22,0-.44,.04-.65,.12-.43,.17-.76,.51-.94,.93Z"/>
          <path class="cls-10" d="M217.16,322.92c.26,.25,.53,.51,.8,.76-3.31,3.08-7.18,5.46-10.8,6.68-9.56,3.22-20.51,.3-27.13-6.96,5.31-3.27,11.51-5.57,17.51-6.49,4.2-.64,8.26-.4,11.76,.68,3.26,1,5.39,3.01,7.86,5.33Z"/>
          <path d="M238.77,426.5c.11-.27,.13-.46,.1-.52-.56-.76-4.88-.38-7.74-.14-5.7,.5-12.15,1.06-14.05-2.16-.7-1.19-.49-2.16-.19-2.78,1.48-3.05,8.65-4.67,16.69-5.91,.03,.16,.06,.3,.1,.42,0,.03,0,.05,0,.07h0c.19,.72,.36,.88,.65,.88,.1,0,.21-.02,.34-.03l.03,.25c-6.06,.91-15.04,2.57-16.26,5.08-.11,.24-.2,.58,.12,1.13,1.34,2.27,7.47,1.74,12.41,1.31,5.22-.45,8.22-.64,9.31,.86,.14,.19,.26,.45,.32,.77,.06,.38,.03,.87-.24,1.47-.72,1.66-4.32,2.42-10.64,3.62-4.84,.93-12.14,2.32-12.67,4.16-.17,.57-.38,1.57,.03,1.97,1.07,1.05,5.65-.36,9.34-1.48,4.85-1.48,9.42-2.86,11.79-1.47,.75,.45,1.23,1.13,1.42,2.03,.5,2.33-3.89,4.2-11.7,7.3-3.82,1.53-9.59,3.82-9.94,4.91,.04,.15,.16,.49,.67,.8,3.02,1.82,13.51-.58,18.2-2.04v.02c-.27,.1-.39,.33-.46,.77h-.03s-.02,.33-.05,.82c0,.1-.02,.22-.03,.33v.03c-2.81,.8-9.19,2.46-13.98,2.46-1.87,0-3.49-.25-4.57-.9-.82-.5-1.33-1.22-1.48-2.09-.36-2.1,3.54-3.75,11.02-6.73,3.9-1.55,10.42-4.15,10.63-5.35-.09-.38-.28-.67-.6-.86-1.71-1-6.33,.4-10.4,1.64-4.98,1.52-9.27,2.82-11.07,1.06-.8-.79-.97-2.03-.49-3.69,.76-2.68,6.04-3.88,14.01-5.4,3.54-.68,8.9-1.7,9.38-2.61Z"/>
          <path class="cls-1" d="M216.18,540.11c.08,.41,.45,.71,.86,.71h.03l1.48-.05c-.18,.36-.49,.63-.87,.79-.88,.35-1.89-.08-2.24-.96s.08-1.89,.96-2.24c.21-.09,.43-.12,.64-.12,.14,0,.28,.02,1.13,.42l-1.41,.48c-.41,.14-.65,.56-.58,.99Z"/>
          <path d="M238.6,344.65c11.79,.1,24.68,.72,37.12,5.43,12.74,4.83,24.64,11.49,25.37,27.41,.52,11.4-4.93,20.26-12.18,29.55l-.11-.09-.58-1.65-.24,.08c6.8-8.8,11.85-17.24,11.36-27.81-.65-14.08-10.16-20.52-24.24-25.85-13.96-5.29-28.63-5.32-41.59-5.34-2.79,0-5.61,.28-8.57,.58-2.87,.3-5.84,.59-8.82,.6h-.35l-.25-.24c-.37-.35-.49-.81-.34-1.24,.43-1.17,2.51-1.43,11.24-2.03,5.68-.38,12.75-.86,15.44-1.98,5.04-2.08,11.96-8.22,15.43-13.69,7.53-11.86,13.15-26.36,16.72-43.11,.64-.23,1.28-.45,1.92-.65-.71,3.46-1.51,6.83-2.42,10.1-3.56,13.16-8.5,24.76-14.74,34.6-3.69,5.82-10.82,12.13-16.23,14.37-.96,.39-2.32,.72-3.93,.97Z"/>
          <path d="M215.44,540.59c.36,.88,1.36,1.31,2.24,.96,.38-.16,.69-.43,.87-.79l.96-.03c-.02,.09-.05,.17-.09,.24-.27,.64-.78,1.13-1.42,1.39-.31,.12-.64,.18-.96,.18-1.03,0-2.01-.62-2.42-1.63-.25-.65-.25-1.35,.03-1.99,.27-.64,.78-1.13,1.42-1.39,1.09-.44,2.3-.08,2.99,.79l-.91,.31c-.85-.4-.99-.42-1.13-.42-.21,0-.43,.03-.64,.12-.88,.35-1.32,1.36-.96,2.24Z"/>
          <path d="M205.44,535.57c.04,.6,.09,1.2,.12,1.79l-.66,.2-.51-1.67,1.05-.32Z"/>
          <path d="M209.89,572.01c-4.74-3.49-4.77-8.9-4.79-13.66,0-1.12-.02-2.17-.08-3.19-.29-4.64-.62-9.41-.97-14.46-.11-1.58-.22-3.17-.33-4.78l.67-.04,.51,1.67,.66-.2c.08,1.08,.15,2.16,.23,3.23,.36,5.05,.69,9.82,.98,14.47,.06,1.06,.07,2.14,.08,3.28,.03,4.57,.05,9.3,4.08,12.27,5.07,3.73,10.56,7.38,17.28,7.69,0,.3-.02,.59-.02,.89l-.04,.85c-7.23-.34-13.2-4.3-18.25-8.02Z"/>
          <path class="cls-1" d="M191.61,566.75c1.66,3.73,3.08,6.96-.48,10.8-7.92,8.53-22.2,4.83-32.03-.94-2.06-1.21-4-2.67-5.74-4.31,.38-2.22,4.33-3.84,11.81-4.86,6.25-.86,14.98-1.29,26.15-1.31,.1,.21,.18,.42,.28,.63Z"/>
          <path d="M191.91,564.37v1.75h-.58c-.25-.58-.5-1.15-.72-1.75h1.29Z"/>
          <path d="M189.57,531.85l.16-1.74,.77-.03c.03,1.08,.07,2.13,.11,3.17,.19,5.08,.12,8.75,.07,11.98-.1,5.04-.17,9.02,.79,15.84,.17,1.05,.53,2.1,.94,3.13l-.51,.17h-1.29c-.38-.98-.7-1.99-.87-3.05-.98-6.98-.91-11.02-.81-16.13,.05-3.2,.12-6.84-.07-11.88-.02-.51-.03-1.02-.06-1.54l.77,.07Z"/>
          <path d="M188.8,531.78c-.02-.58-.04-1.16-.06-1.75l.99,.09-.16,1.74-.77-.07Z"/>
          <path class="cls-9" d="M188.7,529.06c0,.32,.03,.65,.03,.96l-24.09-2.11-14.83-1.31c2.71-19,2.99-35.72,2.58-52.84l35.75,42.25c.28,4.6,.43,8.99,.57,13.05Z"/>
          <path d="M209.81,315.92c3.64,1.13,6.02,3.36,8.54,5.74,.28,.26,.57,.53,.86,.8-.4,.42-.82,.83-1.25,1.22-.27-.25-.54-.51-.8-.76-2.47-2.32-4.6-4.33-7.86-5.33-3.5-1.08-7.56-1.32-11.76-.68-6.01,.93-12.2,3.22-17.51,6.49-.39-.44-.78-.88-1.14-1.35,5.55-3.46,12.07-5.9,18.39-6.86,4.51-.7,8.73-.45,12.54,.73Z"/>
          <path d="M183.82,558.59c.49,0,.86,.41,.86,.9-.02,.47-.4,.85-.87,.85h-.03l-1.48-.04c-.14-.24-.21-.51-.22-.79,0-.34,.09-.67,.26-.95l1.48,.04Z"/>
          <path class="cls-1" d="M185.53,559.43c.03,.95-.73,1.74-1.68,1.75-.65,.03-1.25-.34-1.55-.89l1.48,.04h.03c.47,0,.86-.38,.87-.85,0-.49-.37-.89-.86-.9l-1.48-.04c.06-.1,.13-.19,.22-.28,.31-.34,.75-.52,1.21-.53h.03c.93,0,1.7,.75,1.72,1.68h0Z"/>
          <path class="cls-1" d="M183.74,545.37c.41-.12,.68-.52,.63-.95-.04-.43-.4-.75-.84-.77l-1.48-.04c.05-.1,.13-.19,.21-.28,.32-.33,.75-.52,1.21-.53h.03c.45,0,.87,.17,1.2,.48,.33,.32,.52,.75,.53,1.21s-.17,.9-.48,1.23c-.32,.33-.75,.52-1.21,.53-.42,0-.9-.17-1.23-.48h0s1.44-.4,1.44-.4Z"/>
          <path class="cls-1" d="M183.65,553.72c-.47,0-.9-.19-1.21-.5l1.45-.39c.41-.11,.68-.52,.63-.94s-.41-.76-.84-.77l-1.49-.04c.31-.48,.83-.8,1.43-.81h.03c.93,0,1.71,.75,1.73,1.69,0,.46-.17,.9-.48,1.23-.32,.33-.75,.52-1.21,.53h-.03Z"/>
          <path class="cls-1" d="M184.55,535.81c.33,.31,.52,.74,.52,1.2s-.16,.9-.48,1.23c-.31,.33-.75,.52-1.2,.53-.48,.03-.93-.17-1.25-.49l1.44-.39c.42-.12,.69-.52,.64-.95s-.41-.75-.85-.77l-1.48-.04c.06-.1,.13-.19,.22-.28,.31-.33,.75-.52,1.2-.53h.04c.45,0,.86,.17,1.2,.49Z"/>
          <path d="M186.4,559.42c.03,1.43-1.11,2.62-2.54,2.65-.02,0-.03,0-.05,0-1.15,0-2.14-.75-2.47-1.8l.96,.03c.3,.55,.89,.92,1.55,.89,.95-.02,1.71-.8,1.68-1.75h0c-.02-.94-.79-1.69-1.72-1.69h-.03c-.46,0-.9,.19-1.21,.53-.09,.09-.16,.17-.22,.28l-.96-.03c.37-.95,1.28-1.64,2.37-1.66h.06c1.41,0,2.57,1.13,2.59,2.55Z"/>
          <path d="M184.26,487.55c-1.74-7.19-6.34-34.98-1.47-42.45,2.81-4.3,7.71-6.81,12.47-6.38,4.6,.42,8.42,3.47,10.48,8.39,1.65,3.94,.9,8.25,.24,12.05-.08,.45-.16,.87-.23,1.3-2.96,17.97-2.49,39.46-1.28,60.29,.29,5,.62,9.96,.95,14.82l-1.05,.32-.67,.04c-1.75-25.3-3.38-53.23,.33-75.77,.07-.43,.15-.86,.23-1.31,.61-3.56,1.32-7.6-.14-11.07-1.83-4.36-5.04-6.97-9.03-7.33-4.14-.37-8.39,1.82-10.85,5.6-4.16,6.37-.42,32.31,1.7,41.09,3.55,14.71,4.07,29.77,4.49,41.86,0,.37,.03,.72,.04,1.08l-.77,.03-.99-.09c0-.31-.03-.64-.03-.96-.14-4.06-.29-8.45-.57-13.05-.53-9.02-1.55-18.83-3.88-28.46Z"/>
          <path d="M185.07,537.01c0-.46-.19-.89-.52-1.2s-.75-.49-1.2-.49h-.04c-.45,.02-.89,.2-1.2,.53-.09,.09-.16,.17-.22,.28l-.96-.03c.37-.95,1.28-1.63,2.37-1.66h.06c1.41,0,2.57,1.13,2.59,2.55,.03,1.43-1.11,2.63-2.54,2.65h-.06c-.87,0-1.65-.44-2.12-1.11l.92-.25c.32,.31,.77,.52,1.25,.49,.45,0,.89-.2,1.2-.53,.32-.33,.49-.77,.48-1.23Z"/>
          <path d="M183.65,549.39c1.41,0,2.57,1.13,2.6,2.55,.03,1.43-1.12,2.62-2.55,2.65h-.05c-.87,0-1.65-.44-2.14-1.11h0s.93-.26,.93-.26c.31,.31,.74,.5,1.21,.5h.03c.46,0,.89-.2,1.21-.53,.31-.33,.49-.77,.48-1.23-.02-.94-.79-1.69-1.73-1.69h-.03c-.6,0-1.13,.33-1.43,.81l-.95-.03c.37-.95,1.28-1.64,2.37-1.66h.05Z"/>
          <path d="M183.89,552.83l-1.45,.39c-.31-.31-.51-.72-.52-1.2,0-.35,.09-.68,.26-.95l1.49,.04c.43,0,.79,.34,.84,.77s-.22,.83-.63,.94Z"/>
          <path d="M183.5,547.12c-.67,0-1.31-.25-1.8-.72-.12-.11-.23-.24-.32-.38l.92-.25h0c.33,.32,.81,.5,1.23,.49,.46,0,.89-.2,1.21-.53,.31-.33,.49-.77,.48-1.23s-.2-.89-.53-1.21c-.32-.31-.74-.48-1.2-.48h-.03c-.46,0-.89,.2-1.21,.53-.08,.09-.16,.17-.21,.28l-.97-.03c.12-.31,.31-.6,.55-.86,.48-.51,1.13-.79,1.82-.8h.05c.68,0,1.32,.26,1.8,.72,.51,.48,.79,1.13,.8,1.82v.06c0,.67-.26,1.31-.72,1.79-.48,.51-1.13,.79-1.82,.8h-.05Z"/>
          <path d="M182.3,545.76c-.32-.32-.52-.74-.52-1.2,0-.34,.09-.67,.27-.95l1.48,.04c.44,.02,.79,.34,.84,.77,.05,.43-.22,.83-.63,.95l-1.44,.39Z"/>
          <path d="M181.21,559.52c0-.35,.05-.69,.17-1l.96,.03c-.17,.28-.27,.61-.26,.95,0,.29,.08,.56,.22,.79l-.96-.03c-.08-.24-.12-.49-.13-.75Z"/>
          <path class="cls-11" d="M181.51,553.49c.49,.67,1.27,1.11,2.14,1.11h.05l.04,2.27c-1.08,.02-2,.71-2.37,1.66l-1.29-.03-.1-4.59,1.52-.41Z"/>
          <path d="M182.14,538.29c-.31-.31-.51-.73-.52-1.2,0-.34,.09-.67,.26-.95l1.48,.04c.44,.02,.79,.34,.85,.77s-.22,.83-.64,.95l-1.44,.39Z"/>
          <path class="cls-11" d="M181.7,546.4c.49,.47,1.13,.72,1.8,.72h.05l.04,2.27c-1.08,.02-2,.71-2.37,1.66l-1.3-.03-.09-4.58,1.54-.42c.1,.14,.2,.27,.32,.38Z"/>
          <path class="cls-11" d="M186.25,551.94c-.03-1.41-1.2-2.55-2.6-2.55h-.05l-.04-2.27c.7-.02,1.34-.3,1.82-.8,.46-.48,.72-1.12,.72-1.79v-.06c-.02-.7-.3-1.34-.8-1.82-.48-.46-1.12-.72-1.8-.72h-.05c-.69,.02-1.34,.3-1.82,.8-.24,.25-.43,.54-.55,.86l-1.29-.03-.1-4.58,1.54-.42c.47,.67,1.25,1.11,2.12,1.11h.06c1.43-.03,2.58-1.22,2.54-2.65-.03-1.41-1.19-2.55-2.59-2.55h-.06c-1.08,.03-2,.71-2.37,1.66l-1.3-.03-.1-5.11,9.28,.81c.03,.52,.04,1.03,.06,1.54,.19,5.05,.12,8.68,.07,11.88-.1,5.12-.17,9.16,.81,16.13,.17,1.06,.49,2.07,.87,3.05-3.76,0-7.23,.07-10.41,.17l-.09-4.31,1.21,.03c.33,1.05,1.32,1.8,2.47,1.8,.02,0,.03,0,.05,0,1.43-.03,2.58-1.21,2.54-2.65-.03-1.42-1.19-2.55-2.59-2.55h-.06l-.04-2.27c1.43-.03,2.58-1.22,2.55-2.65Z"/>
          <path d="M181.38,558.52c-.12,.31-.18,.65-.17,1,0,.26,.05,.52,.13,.75l-1.21-.03-.03-1.75,1.29,.03Z"/>
          <path d="M181.51,553.48c-.28-.41-.45-.9-.46-1.43,0-.35,.06-.69,.18-1l.95,.03c-.17,.27-.27,.6-.26,.95,0,.47,.2,.89,.52,1.2l-.93,.25Z"/>
          <path d="M181.05,552.05c.02,.53,.18,1.02,.46,1.43h0s-1.52,.42-1.52,.42l-.06-2.88,1.3,.03c-.12,.31-.19,.65-.18,1Z"/>
          <path d="M180.9,544.57c0-.34,.05-.68,.17-1l.97,.03c-.18,.28-.28,.61-.27,.95,0,.46,.2,.88,.52,1.2l-.92,.25c-.3-.42-.46-.92-.48-1.44Z"/>
          <path d="M179.84,546.43l-.06-2.89,1.29,.03c-.12,.31-.17,.65-.17,1,.02,.52,.18,1.02,.48,1.44l-1.54,.42Z"/>
          <path d="M180.75,537.1c0-.35,.05-.69,.17-1l.96,.03c-.17,.28-.27,.61-.26,.95,0,.47,.2,.89,.52,1.2l-.92,.25c-.29-.41-.46-.9-.47-1.44Z"/>
          <path d="M180.93,536.11c-.12,.31-.18,.65-.17,1,0,.54,.18,1.03,.47,1.44l-1.54,.42-.06-2.89,1.3,.03Z"/>
          <path d="M180.21,564.55v.5s-1.74,.03-1.74,.03v-.47c.56-.03,1.14-.04,1.74-.06Z"/>
          <path d="M180.12,560.24l.09,4.31c-.59,.02-1.18,.03-1.75,.06l-.09-4.42,1.75,.04Z"/>
          <polygon points="180.09 558.49 180.12 560.24 178.38 560.19 178.34 558.44 180.09 558.49"/>
          <polygon points="179.99 553.9 180.09 558.49 178.34 558.44 178.26 554.38 179.99 553.9"/>
          <polygon points="179.93 551.02 179.99 553.9 178.26 554.38 178.22 552.69 178.19 550.96 179.93 551.02"/>
          <polygon points="179.84 546.43 179.93 551.02 178.19 550.96 178.11 546.91 179.84 546.43"/>
          <polygon points="179.78 543.54 179.84 546.43 178.11 546.91 178.07 545.22 178.04 543.49 179.78 543.54"/>
          <polygon points="179.69 538.96 179.78 543.54 178.04 543.49 177.95 539.44 179.69 538.96"/>
          <polygon points="179.63 536.07 179.69 538.96 177.95 539.44 177.91 537.75 177.88 536.02 179.63 536.07"/>
          <polygon points="179.52 530.96 179.63 536.07 177.88 536.02 177.78 530.82 179.52 530.96"/>
          <path d="M164.65,527.91l24.09,2.11c.02,.59,.04,1.18,.06,1.75l-9.28-.81v-.64s-1.75,.03-1.75,.03v.45s-13.18-1.16-13.18-1.16v-.97s.06-.78,.06-.78Z"/>
          <polygon points="179.51 530.33 179.52 530.96 177.78 530.82 177.77 530.36 179.51 530.33"/>
          <path d="M179.56,323.68l-.93-1.48c.09-.05,.17-.1,.25-.15,.37,.47,.75,.92,1.14,1.35-.16,.09-.31,.18-.46,.28Z"/>
          <path class="cls-11" d="M178.38,560.19l.09,4.42c-5.29,.21-9.74,.56-13.4,1.07l-.07-5.86,13.38,.38Z"/>
          <polygon points="178.34 558.44 178.38 560.19 164.99 559.82 164.97 558.06 178.34 558.44"/>
          <polygon class="cls-11" points="178.34 558.44 164.97 558.06 164.97 558.03 178.26 554.38 178.34 558.44"/>
          <polygon points="177.77 552.7 178.22 552.69 178.26 554.38 164.97 558.03 164.94 556.21 177.77 552.7"/>
          <polygon class="cls-11" points="178.11 546.91 178.19 550.96 164.86 550.6 164.86 550.54 178.11 546.91"/>
          <polygon points="178.07 545.22 178.11 546.91 164.86 550.54 164.85 548.73 177.62 545.23 178.07 545.22"/>
          <polygon class="cls-11" points="177.95 539.44 178.04 543.49 164.77 543.13 164.77 543.05 177.95 539.44"/>
          <polygon points="177.91 537.75 177.95 539.44 164.77 543.05 164.74 541.24 177.46 537.76 177.91 537.75"/>
          <polygon class="cls-11" points="177.78 530.82 177.88 536.02 164.67 535.65 164.58 529.66 177.78 530.82"/>
          <polygon points="177.77 552.7 164.89 552.34 164.86 550.6 178.19 550.96 178.22 552.69 177.77 552.7"/>
          <polygon class="cls-11" points="177.77 552.7 164.94 556.21 164.89 552.34 177.77 552.7"/>
          <polygon points="177.62 545.23 164.79 544.87 164.77 543.13 178.04 543.49 178.07 545.22 177.62 545.23"/>
          <polygon class="cls-11" points="177.62 545.23 164.85 548.73 164.79 544.87 177.62 545.23"/>
          <polygon points="164.67 535.65 177.88 536.02 177.91 537.75 177.46 537.76 164.69 537.4 164.67 535.65"/>
          <polygon class="cls-11" points="177.46 537.76 164.74 541.24 164.69 537.4 177.46 537.76"/>
          <path d="M224.58,304.29c-2.83-3.18-9.07-4.6-13.78-4.6h-.21c-2.03,.02-4.1,.17-6.1,.33-3.44,.27-7,.54-10.52,.13-1.74-.2-3.61-.71-5.61-1.25-2.72-.73-5.51-1.48-8.01-1.48-1.13,0-2.21,.16-3.2,.54-2.8,1.09-3.57,4.53-3.73,7.23-.02,.36-.03,.72-.03,1.1,0,.6,.02,1.21,.07,1.82,.4,4.71,2.03,9.22,4.73,13.03,.22,.31,.45,.61,.68,.91-.09,.04-.17,.1-.25,.15l.93,1.48c.16-.1,.31-.19,.46-.28,6.63,7.25,17.57,10.18,27.13,6.96,3.61-1.22,7.49-3.6,10.8-6.68,.3,.28,.6,.55,.92,.83l1.16-1.3c-.28-.25-.56-.5-.83-.75,3.61-3.72,6.35-8.28,6.94-12.99,.24-1.99-.28-3.73-1.57-5.18Zm-14-6.35c3.91-.07,11.59,1.01,15.31,5.19,1.63,1.84,2.3,4.05,1.99,6.56-1.27,10.15-11.25,19.32-20.17,22.32-2.87,.97-5.83,1.43-8.76,1.44-8.68,0-17.08-4.09-22.17-11.31-2.88-4.07-4.63-8.87-5.05-13.89-.09-1.07-.1-2.14-.05-3.16,.13-2.3,.62-4.22,1.43-5.68,.81-1.48,1.96-2.51,3.4-3.08,3.68-1.42,8.26-.19,12.29,.89,1.93,.52,3.75,1.01,5.36,1.2,3.35,.39,6.83,.12,10.18-.13,2.03-.16,4.14-.32,6.22-.34Z"/>
          <path d="M167.02,273.6c.33,2.66-1.47,5.93-3.9,7.07-4.94,2.31-9.93-.42-10.64-5.83-.35-2.67,1.44-5.94,3.87-7.11,4.97-2.37,10,.4,10.68,5.87Z"/>
          <path d="M178.47,565.08l1.75-.03v-.5c3.17-.1,6.63-.17,10.4-.17,.22,.59,.46,1.17,.72,1.75-11.17,.02-19.9,.45-26.15,1.31l-.1-.76-.02-1c3.66-.51,8.11-.86,13.4-1.07v.47Z"/>
          <path d="M165.06,565.67l.02,1-1.75,.03v-.75c.55-.1,1.13-.18,1.73-.27Z"/>
          <path d="M164.99,559.82l.07,5.86c-.6,.09-1.18,.17-1.74,.27l-.09-6.18,1.75,.05Z"/>
          <polygon points="164.97 558.03 164.97 558.06 164.83 558.06 164.97 558.03"/>
          <polygon points="164.89 552.34 164.94 556.21 163.21 556.69 163.14 552.29 164.89 552.34"/>
          <polygon points="164.86 550.54 164.86 550.6 164.67 550.59 164.86 550.54"/>
          <polygon points="164.79 544.87 164.85 548.73 163.1 549.2 163.05 544.82 164.79 544.87"/>
          <polygon points="163.21 556.69 164.94 556.21 164.97 558.03 164.83 558.06 164.97 558.06 164.99 559.82 163.24 559.76 163.21 556.69"/>
          <polygon points="164.77 543.05 164.77 543.13 164.52 543.12 164.77 543.05"/>
          <polygon points="164.69 537.4 164.74 541.24 163 541.72 162.94 537.35 164.69 537.4"/>
          <polygon points="164.67 535.65 164.69 537.4 162.94 537.35 162.93 535.6 164.67 535.65"/>
          <polygon points="164.89 552.34 163.14 552.29 163.1 549.2 164.85 548.73 164.86 550.54 164.67 550.59 164.86 550.6 164.89 552.34"/>
          <polygon points="164.58 529.66 164.67 535.65 162.93 535.6 162.84 529.51 164.58 529.66"/>
          <path d="M149.81,526.6l14.83,1.31-.07,.78-1.75,.03v.79s-13.27-1.17-13.27-1.17c.09-.58,.17-1.16,.25-1.74Z"/>
          <polygon points="164.58 528.69 164.58 529.66 162.84 529.51 162.83 528.71 164.58 528.69"/>
          <polygon points="163.05 544.82 163 541.72 164.74 541.24 164.77 543.05 164.52 543.12 164.77 543.13 164.79 544.87 163.05 544.82"/>
          <path class="cls-11" d="M158.69,546.43c.7-.02,1.34-.3,1.82-.8,.24-.25,.43-.54,.55-.86l1.98,.05,.05,4.38-2.18,.6c-.47-.67-1.25-1.11-2.13-1.11h-.05l-.04-2.27Z"/>
          <path d="M163.21,556.69l.03,3.07-1.89-.05c.13-.31,.19-.65,.18-1,0-.53-.18-1.03-.46-1.43l2.13-.58Z"/>
          <path d="M161.08,536.36v-.06c0-.26-.05-.52-.12-.75l1.96,.05,.02,1.75-2.03-.05c.11-.29,.17-.6,.17-.93Z"/>
          <path d="M163.1,549.2l.04,3.09-1.94-.05c.12-.31,.19-.65,.18-1,0-.54-.18-1.03-.47-1.44l2.18-.6Z"/>
          <path d="M161.24,543.77c-.02-.52-.17-1.02-.47-1.44l2.23-.61,.04,3.1-1.98-.05c.11-.3,.17-.61,.17-.93v-.06Z"/>
          <path d="M161.54,558.71c0,.36-.05,.7-.18,1l-.95-.03c.17-.28,.27-.61,.26-.96,0-.46-.2-.89-.52-1.2l.93-.25c.28,.4,.45,.9,.46,1.43Z"/>
          <path d="M161.08,536.3v.06c0,.33-.06,.65-.17,.93l-.96-.03c.17-.28,.27-.6,.26-.95,0-.1,0-.21-.22-.79l.97,.03c.07,.24,.11,.49,.12,.75Z"/>
          <path d="M160.52,551.26c0,.34-.09,.67-.27,.95l-1.48-.04c-.43-.02-.79-.34-.84-.77s.22-.84,.64-.95l1.43-.39c.32,.32,.52,.74,.52,1.2Z"/>
          <path d="M160.25,552.21c.18-.28,.28-.61,.27-.95,0-.46-.2-.88-.52-1.2l.93-.25c.29,.41,.46,.9,.47,1.44,0,.35-.06,.69-.18,1l-.96-.03Z"/>
          <path d="M160.66,558.73c0,.35-.09,.68-.26,.96l-1.48-.04c-.44-.02-.79-.34-.85-.77-.04-.44,.22-.84,.64-.95l1.44-.39c.31,.31,.51,.73,.52,1.2Z"/>
          <path d="M159.99,535.52c.21,.58,.22,.69,.22,.79,0,.35-.09,.67-.26,.95l-1.48-.04c-.48,0-.86-.41-.85-.9,0-.48,.44-.86,.89-.85l1.48,.04Z"/>
          <path d="M160.11,544.74l-1.49-.04c-.43,0-.79-.34-.84-.77s.22-.83,.64-.95l1.43-.39c.33,.33,.52,.75,.52,1.2,0,.34-.09,.67-.26,.95Z"/>
          <path d="M161.07,544.77l-.96-.03c.17-.28,.27-.61,.26-.95,0-.45-.19-.87-.52-1.2l.93-.25c.3,.42,.45,.92,.47,1.44v.06c0,.32-.06,.64-.17,.93Z"/>
          <path class="cls-11" d="M161.07,557.28c-.47-.67-1.26-1.11-2.13-1.11h-.05l-.05-2.27c1.08-.03,2-.71,2.37-1.66l1.94,.05,.06,4.4-2.13,.58Z"/>
          <path class="cls-11" d="M155.89,536.4c.03,1.41,1.19,2.55,2.6,2.55h.05l.04,2.27c-.69,.02-1.34,.3-1.82,.8-.48,.5-.73,1.16-.72,1.85,.02,.7,.31,1.34,.8,1.82,.49,.46,1.13,.72,1.8,.72h.05l.04,2.27c-1.43,.03-2.58,1.22-2.55,2.65,.03,1.41,1.2,2.55,2.6,2.55h.05l.05,2.27c-1.44,.03-2.58,1.21-2.55,2.65,.03,1.41,1.19,2.54,2.6,2.54h.05c1.07-.02,1.99-.7,2.36-1.65l1.89,.05,.09,6.18c-6.52,1.06-10.17,2.7-11.32,4.98-2.01-2.12-3.69-4.49-4.92-6.95-2.45-4.93-2.93-8.35-1.83-13.09,1.84-7.94,3.26-15.41,4.31-22.55l13.28,1.17,.09,6.09-1.96-.05c-.34-1.05-1.33-1.8-2.47-1.8h-.06c-1.43,.03-2.58,1.22-2.54,2.65Z"/>
          <path class="cls-11" d="M160.44,541.95c-.5-.48-1.13-.71-1.85-.72l-.04-2.27c1.08-.02,2-.71,2.37-1.66l2.03,.05,.06,4.37-2.23,.61c-.1-.14-.21-.27-.33-.38Z"/>
          <path d="M178.51,584.3c-6.92,0-14.38-2.72-20.29-6.19-2.47-1.45-4.78-3.26-6.8-5.29l.17-.17h1.75c0-.12,0-.24,.03-.36,1.74,1.64,3.68,3.1,5.74,4.31,9.83,5.77,24.11,9.47,32.03,.94,3.56-3.84,2.14-7.07,.48-10.8-.1-.21-.18-.42-.28-.63h.58v-1.75l.51-.17c.25,.62,.52,1.23,.79,1.84,1.67,3.75,3.55,8.01-.79,12.69-3.72,4.01-8.66,5.57-13.91,5.57Z"/>
          <path class="cls-1" d="M157.22,558.8c0-.46,.16-.9,.48-1.23,.32-.34,.75-.52,1.21-.53h.03c.47,0,.89,.19,1.2,.49l-1.44,.39c-.42,.11-.68,.52-.64,.95,.05,.43,.41,.75,.85,.77l1.48,.04c-.3,.47-.82,.79-1.42,.8-.93,0-1.75-.73-1.76-1.68Z"/>
          <path class="cls-1" d="M157.92,551.4c.05,.43,.41,.75,.84,.77l1.48,.04c-.06,.1-.13,.19-.21,.28-.32,.33-.75,.52-1.21,.53h-.03c-.93,0-1.7-.75-1.73-1.69-.02-.95,.74-1.75,1.69-1.76h.03c.45,0,.87,.17,1.2,.48h0s-1.43,.4-1.43,.4c-.42,.11-.69,.52-.64,.95Z"/>
          <path class="cls-1" d="M157.78,543.93c.05,.43,.41,.76,.84,.77l1.49,.04c-.06,.1-.13,.19-.22,.28-.32,.33-.75,.52-1.21,.53-.43,0-.9-.17-1.23-.48-.33-.32-.52-.75-.53-1.21,0-.46,.17-.9,.48-1.23,.32-.33,.75-.52,1.21-.53h.03c.45,0,.87,.17,1.2,.48h0s-1.43,.4-1.43,.4c-.42,.12-.69,.52-.64,.95Z"/>
          <path class="cls-1" d="M157.62,536.33c-.02,.49,.37,.89,.85,.9l1.48,.04c-.3,.48-.82,.8-1.42,.81h-.03c-.94,0-1.71-.75-1.73-1.69,0-.46,.16-.9,.48-1.23,.31-.33,.75-.52,1.21-.53h.03c.45,0,.86,.17,1.2,.48,.13,.12,.24,.26,.31,.42l-1.48-.04c-.45-.02-.88,.37-.89,.85Z"/>
          <path d="M157.7,557.57c-.32,.33-.49,.77-.48,1.23,.02,.95,.84,1.68,1.76,1.68,.6,0,1.13-.33,1.42-.8l.95,.03c-.37,.95-1.28,1.63-2.36,1.65h-.05c-1.41,0-2.58-1.13-2.6-2.54-.03-1.44,1.11-2.63,2.55-2.65h.05c.87,0,1.66,.44,2.13,1.11l-.93,.25c-.31-.3-.73-.49-1.2-.49h-.03c-.46,0-.89,.19-1.21,.53Z"/>
          <path d="M158.79,553.9c-1.41,0-2.57-1.13-2.6-2.55-.03-1.43,1.12-2.63,2.55-2.65h.05c.88,0,1.66,.44,2.13,1.11l-.93,.25h0c-.32-.32-.75-.49-1.2-.49h-.03c-.95,.02-1.71,.81-1.69,1.76,.03,.94,.79,1.69,1.73,1.69h.03c.46,0,.89-.2,1.21-.53,.08-.09,.15-.17,.21-.28l.96,.03c-.37,.95-1.28,1.63-2.37,1.66h-.05Z"/>
          <path d="M156.76,542.03c.48-.51,1.13-.79,1.82-.8,.72,.02,1.35,.24,1.85,.72,.12,.11,.24,.24,.33,.38l-.93,.25h0c-.32-.31-.74-.49-1.2-.49h-.03c-.46,0-.89,.2-1.21,.53-.31,.33-.49,.77-.48,1.23,.02,.46,.2,.89,.53,1.21,.33,.31,.8,.48,1.23,.48,.46,0,.89-.2,1.21-.53,.09-.09,.16-.17,.22-.28l.96,.03c-.12,.31-.31,.6-.55,.86-.48,.51-1.13,.79-1.82,.8h-.05c-.67,0-1.31-.26-1.8-.72-.5-.48-.79-1.13-.8-1.82,0-.69,.24-1.35,.72-1.85Z"/>
          <path d="M158.49,538.95c-1.41,0-2.58-1.13-2.6-2.55-.03-1.43,1.11-2.62,2.54-2.65h.06c1.14,0,2.13,.75,2.47,1.8l-.97-.03c-.07-.16-.17-.3-.31-.42-.33-.31-.75-.48-1.2-.48h-.03c-.46,0-.9,.2-1.21,.53-.32,.33-.49,.77-.48,1.23,.02,.94,.79,1.69,1.73,1.69h.03c.6,0,1.13-.33,1.42-.81l.96,.03c-.37,.95-1.28,1.64-2.37,1.66h-.05Z"/>
          <path d="M153.51,260.32c3.19-2.27,7.57-3.43,11.25-1.75,1.16,.76,2.03,1.52,3.02,2.56,.34,.41,.73,.81,.96,1.34,.15,.58,.2,1.21,0,1.81l-1.1,.31c-.28-.14-.42-.29-.61-.42-.62-.28-.83-.8-1.25-1.31-.52-.64-1.16-1.23-1.86-1.82-1.46-1.32-5-1.01-7-.35-2.73,.84-4.38,2.73-6.52,4.73l-.82-.79c1.16-1.36,2.47-3.26,3.94-4.32Z"/>
          <path d="M153.37,572.29c-.47-.45-.93-.9-1.36-1.36,1.15-2.29,4.8-3.93,11.32-4.98v.75s1.75-.03,1.75-.03l.1,.76c-7.48,1.02-11.43,2.65-11.81,4.86Z"/>
          <path d="M151.59,572.65c0-.61,.13-1.19,.41-1.72,.44,.46,.89,.92,1.36,1.36-.02,.12-.03,.24-.03,.36h-1.75Z"/>
          <path d="M152.39,473.76c.41,17.12,.13,33.85-2.58,52.84l-.92-.08-.82-.12c2.75-19.29,2.99-36.25,2.54-53.68l.87-.03,.9,1.07Z"/>
          <path d="M149.81,526.6c-.08,.58-.17,1.15-.25,1.74l-.82-.07,.16-1.75,.92,.08Z"/>
          <path class="cls-6" d="M150.65,89.78c-.62-1.27-1.25-2.59-1.81-3.9l.34,.13c11.51,4.47,22.37,8.69,32.61,15.37,1.9,1.24,3.13,2.46,4.43,3.75,.97,.97,1.97,1.97,3.31,3.05,1.78,1.55,3.39,3.56,4.94,5.51,.79,.99,1.62,2.02,2.44,2.95,.1,.1,.23,.3,.39,.53,.98,1.35,2.31,3.2,3.69,2.61,.51-.22,.86-.63,1.03-1.18,.62-2.04-1.82-6.01-2.58-7.17-3.88-5.93-8.02-12.91-8.22-20.91-.17-7.18,2.73-13.17,8.42-17.3,.86-.63,1.82-1.16,2.84-1.72,1.36-.75,2.78-1.53,3.97-2.58,.86-.76,1.25-1.87,1-2.91-.24-1.01-1.04-1.78-2.12-2.06-.99-.25-1.96-.5-2.92-.74-6.33-1.58-12.32-3.08-17.82-6.75,.86-.7,1.8-1.36,2.71-2,1.58-1.11,3.2-2.25,4.59-3.67,.82-.84,1.08-1.95,.71-2.99-.39-1.07-1.38-1.8-2.58-1.9-1.58-.14-3.19-.08-4.73-.03-1.43,.06-2.79,.11-4.11,0-.52-.03-.99-.34-1.26-.81-.4-.72-.81-1.46-1.23-2.22-1.88-3.38-4.01-7.2-5.99-10.16-2.17-3.25-4-6.48-5.77-9.59-1.1-1.96-2.24-3.97-3.47-5.99-1.13-1.87-2.46-3.46-3.74-4.99-.62-.74-1.24-1.48-1.84-2.27-1.2-1.55-1.9-2.93-2.3-4.52,6.81-.62,12.77-.13,18.22,1.5,6.64,2,13.09,4.09,19.04,7.64,16.29,9.73,27.29,19.12,35.68,30.42,.82,1.1,1.62,2.16,2.4,3.21,7.53,10.04,13.47,17.97,18.04,33.92,2.34,8.14,2.47,17.08,2.59,25.74l.03,2.17c.2,12.13-.3,24.05-.87,35.13l-.1,2.09,1.75,.1c.06-.37,.94-1.44,1.37-1.96,.31-.38,.58-.71,.76-.97,.82-1.24,1.62-2.5,2.42-3.75,1.49-2.38,2.94-4.82,4.3-7.24l.46-.83c3.67-6.56,7.13-12.77,12.4-18.19,8.14-8.38,18.9-14.28,33.85-18.56,12.63-3.62,25.53-4.91,38.32-3.81,4.17,.36,8.34,.97,12.37,1.83-.28,.71-.63,1.38-1,2.1-.58,1.16-1.2,2.36-1.55,3.7-.31,1.14-.03,2.25,.73,2.97,.79,.73,1.95,.93,3.12,.53,5.63-1.92,12.36-3.61,19.61-1.55,4.9,1.4,9.51,3.89,13.96,6.31l.31,.17c14.67,7.95,29.83,16.17,38.35,30.58-4.31,.41-8.43-.34-12.79-1.13-1.11-.2-2.22-.4-3.33-.58-1.2-.2-2.41-.42-3.61-.64-4.64-.85-9.44-1.73-14.34-1.15-14.33,1.67-26.53,6.82-40.93,13.38-.32-.49-.63-.97-.93-1.43-1.46-2.3-2.84-4.46-4.85-6.91-1.26-1.54-3.58-3.61-5.33-4.99-.71-.56-1.64-.7-2.58-.39-1,.33-1.79,1.13-2.03,2.03-.52,1.96-.82,5.28-.62,6.84,.03,.21,.11,.67,.23,1.29,.95,5.25,1.12,7.48,1.02,8.37l-6.04-3.84c-.78-.5-2.39-1.53-3.95-.79-1.62,.76-1.86,2.79-1.41,4.37,.11,.39,.26,.79,.42,1.18,.28,.76,.56,1.48,.52,2.16,0,.1-.03,.17-.02,.17-.05,.03-.16,.04-.31,.07-1.81,.31-3.69,.47-5.52,.62-1.07,.09-2.14,.17-3.21,.29-12.24,1.35-23.52,6.7-31.98,11.19-5.82,3.11-11.58,6.51-17.12,10.14-.17,.12-.45,.28-.78,.48-3.13,1.88-4.48,2.91-4.16,4.08,.3,1.07,1.75,1.07,2.3,1.06,1.84,0,3.71-.82,5.35-1.55,.47-.2,.93-.4,1.37-.58,.87-.35,1.74-.72,2.6-1.08,1.79-.76,3.63-1.55,5.51-2.1,5.88-1.75,11.96-3.09,18.1-4.01,12.22-1.82,24.67-1.96,37-.45,16.04,1.99,28.23,5.35,37.27,10.27,8.67,4.73,16.26,11.53,24.64,22.08,1.81,2.28,3.61,4.64,5.35,6.92l.64,.83c7.87,10.32,13.42,21.46,16.47,33.14-.15,0-.3,.04-.45,.12,0,0,0,0-.02,0-4.28-3.28-9.25-4.43-13.99-5.19-2.35-.38-4.61-.75-6.85-1.12-1.88-.31-3.75-.62-5.66-.93-8.21-1.33-17-2.99-25.67-6.21,.27-.57,.56-1.14,.87-1.75,.67-1.3,1.37-2.65,1.81-4.08,.36-1.14,.07-2.33-.74-3.1-.76-.72-1.84-.93-2.88-.54-2.26,.83-4.43,1.88-6.52,2.89-2.99,1.45-5.82,2.81-8.94,3.64,1.57-5.96,1.76-11.6,.63-17.68-.17-.92-.72-1.66-1.51-2.05-.8-.4-1.75-.38-2.61,.04-2.61,1.31-5.02,2.92-7.35,4.5-.97,.65-1.95,1.31-2.94,1.95-.52,.33-1.04,.68-1.56,1.03-2.31,1.54-4.71,3.13-7.37,3.77-2.65,.64-5.1,.24-8.04-.32-3.87-.76-7.66-1.52-11.38-2.46-7.68-1.96-15.63-4.68-24.29-8.34l-.16-.06c-.92-.45-5.99-3.2-10.1-5.41-2.18-1.18-4.3-2.32-5.87-3.16-3.21-1.73-3.22-1.73-3.69-1.17l-.45,.55,.44,.56c5.19,6.6,11.17,12.73,16.94,18.65,2.07,2.11,4.19,4.3,6.25,6.46,1.06,1.11,2.12,2.22,3.2,3.33,7.34,7.66,14.93,15.57,20.26,24.65,2.21,3.75,4,7.62,5.33,11.51,3,8.78,3.92,18.22,4.79,27.34,.16,1.59,.31,3.18,.47,4.76,.17,1.67,.39,3.34,.6,4.97,.42,3.32,.86,6.74,.93,10.12,.11,5.78-.15,11.41-.8,16.75-1.28,10.57-5.63,18.67-13.28,24.75-1.32-1.5-2.65-2.99-3.99-4.5-5.08-5.69-10.34-11.58-14.74-17.9-3.33-4.79-6.28-9.89-8.76-15.15-.28-.58-.58-1.2-.88-1.82-2.23-4.52-4.74-9.65-3.26-14.17,.08-.22,.25-.44,.45-.69,.15-.19,.3-.38,.43-.59,.05-.04,.1-.09,.16-.14,.86-.88,1.86-1.81,2.83-2.71,1.49-1.39,3.05-2.84,4.24-4.23,1.38-1.62,.98-2.8,.62-3.36-.86-1.34-3.06-1.66-4.66-1.19-2.46,.72-4.9,1.92-7.25,3.08-1.03,.51-2.01,1-2.98,1.44,.07-.14,.16-.28,.24-.41,.17-.26,.45-.66,.72-1.07,.27-.39,.54-.79,.72-1.07,.67-1,1.47-1.95,2.23-2.86,.77-.92,1.55-1.87,2.25-2.9,.56-.82,.7-1.89,.38-2.78-.28-.82-.9-1.41-1.74-1.67-.93-.29-1.87-.11-2.63,.02-1.56,.29-3.13,.74-4.66,1.27-1.33,.45-2.65,.97-3.95,1.48-1.42,.56-2.9,1.13-4.34,1.61-.3-1.62,.21-3.37,.73-5.2,.25-.88,.52-1.8,.69-2.71,2.16-11.41-9.19-21.98-17.49-29.69-1.44-1.34-2.8-2.6-3.98-3.76-2.87-2.85-5.81-9.78-8.92-17.12-4.89-11.53-9.94-23.46-16.53-24.34-5.43-.72-9.25,9.52-12.03,17-.83,2.23-1.54,4.16-2.08,5.12-7.53,13.58-21.58,19.64-36.71,24.91,1.52-6.48,3.95-12.69,7.25-18.48l1.51-2.65-2.68,1.45c-3.06,1.65-6.12,3.51-9.36,5.47-9.91,6-20.15,12.2-30.81,12.94-.29,.02-.61,.04-.94,.08-.13,.02-.27,.03-.41,.04-1.48,.17-3.96,.43-4.47-.29-.24-.34-.09-1.13,.41-2.17,.25-.52,1.23-1.62,2.09-2.58,1.27-1.44,2.6-2.93,3.01-4,.4-1.07,1.26-3.28-1.33-4.37-1.42-.6-1.93-.31-3.17,.4l-.31,.17c-.97,.55-1.94,1.17-2.97,1.82-2.99,1.91-6.32,4.05-9.79,4.36,.85-1.15,1.71-2.31,2.57-3.47,2.53-3.42,5.15-6.95,7.55-10.45,.79-1.17,.7-2.56-.26-3.55-.95-.98-2.43-1.19-3.51-.49-5.68,3.65-11.1,7.83-16.32,11.88-2.03,1.56-4.03,3.12-6.04,4.63-.21,.16-.35,.27-.45,.36-.1,0-.24,0-.43,.03-8.53,1.14-15.4,1.79-21.01,1.98-8.03,.26-15.36,0-23.11-.29l-.81-.03c.76-.99,1.62-1.89,2.51-2.85,1.07-1.13,2.18-2.31,3.13-3.65,.83-1.18,.9-2.45,.18-3.42-.76-1.04-2.21-1.41-3.68-.93-.1,.03-.2,.08-.32,.16-2.24,1.45-4.4,3.1-6.49,4.71-2,1.54-4.08,3.13-6.18,4.49-.95,.62-1.59,1.23-2.1,1.73-1.41,1.34-2.1,2.02-8.01,.72-5.05-1.12-7.59-1.92-9.45-2.51-1.14-.36-2.05-.65-3.16-.89-.19-2.46,.58-4.89,2.33-7.41,2.24-3.23,4.14-5.9,6.44-8.46,8.46-9.41,16.97-17.24,26.01-23.95,13.92-10.34,27.72-20.16,43.54-26.64,9.89-4.06,20.45-4.97,32.22-5.66,11.5-.68,22.65-.72,33.15-.1,6.27,.37,11.51,.78,16.7,1.57,.92,.14,2.27,.69,3.7,1.27,3.13,1.27,6.66,2.71,8.9,1.3l.53-.33-.15-.6c-.37-1.54-1.53-2.64-2.68-3.62-3.61-3.09-9.37-7-16.38-8.11-8-1.27-15.36-1.68-21.88-1.23-.31,.02-.73,.07-1.23,.13-1.62,.2-5.41,.67-6.23-.34-.18-.23-.18-.61,0-1.14,.24-.71,.61-1.61,.94-2.4,.2-.49,.39-.94,.55-1.34,.38-.99,.26-2-.32-2.78-.6-.81-1.61-1.27-2.65-1.2-1.41,.11-2.97,.56-4.47,1-1.11,.32-2.25,.65-3.29,.82,0-.02,.02-.03,.03-.06,.24-.43,.47-.88,.67-1.38,.43-1.06,.17-2.28-.67-3.12-.84-.85-2.03-1.1-3.1-.68-1.18,.46-2.16,1.04-3.1,1.6-.85,.5-1.65,.97-2.54,1.34-.22,.09-.37,.17-.48,.22-.02,0-.03,.02-.04,.03h0c-.1,0-.35-.05-.49-.07-5.17-.9-10.74-2.02-16.58-3.33,.61-1.01,1.23-1.93,1.89-2.9,.82-1.2,1.67-2.45,2.51-3.93,.53-.93,.31-2.2-.56-3.15-.88-.96-2.1-1.28-3.12-.81-1.41,.65-2.66,1.34-3.88,2-1,.55-1.96,1.07-2.99,1.57-.08,.04-.15,.07-.2,.1-.61,.17-1.74,.52-3.36,1.05-2.16,.69-4.29,.99-6.34,.86-4.02-.23-7.66-1.46-11.65-2.92-1.99-.72-3.96-1.48-5.93-2.23-6.72-2.58-13.68-5.23-21.05-6.65-9.62-1.86-19.43-1.62-27.94-1.22,6.01-9.45,13.87-17.22,23.4-23.08,12.68-7.8,23.98-13.03,36.67-16.94,12.43-3.84,24.55-4.91,36-3.2,5.21,.78,9.17,3.46,13.36,6.29,.65,.45,1.32,.89,1.99,1.34,1.37,.92,2.68,2.06,3.95,3.17,1.34,1.17,2.72,2.38,4.23,3.37,1.11,.72,2.5,.65,3.53-.17s1.4-2.16,.93-3.4c-.72-1.93-1.62-3.82-2.51-5.65Z"/>
          <path d="M152,570.93c-.28,.53-.41,1.11-.41,1.72l-.17,.17c-2.44-2.43-4.46-5.19-5.9-8.07-2.66-5.34-3.18-9.08-1.97-14.26,1.97-8.51,3.45-16.48,4.53-24.09l.82,.12-.16,1.75,.82,.07c-1.06,7.14-2.47,14.61-4.31,22.55-1.1,4.74-.62,8.16,1.83,13.09,1.23,2.46,2.92,4.83,4.92,6.95Z"/>
          <path d="M136.43,250.38c-.03,.22-.06,.43-.09,.65-.22,.02-.43,.03-.65,.05-.35,.03-.73,.07-1.14,.1,.05-.35,.1-.7,.15-1.05l1.73,.24Z"/>
          <path d="M210.09,221.2c-.89,2.39-1.59,4.28-2.19,5.36-8.07,14.57-23.13,20.72-39.14,26.22l-1.46,.51,.31-1.51c1.32-6.22,3.45-12.2,6.35-17.84-2.17,1.25-4.38,2.58-6.68,3.97-9.89,5.99-20.1,12.18-30.94,13.13,.03-.22,.06-.43,.09-.65l-1.73-.24-.07-.72c.33-.03,.65-.06,.94-.08,10.66-.73,20.9-6.94,30.81-12.94,3.24-1.96,6.3-3.82,9.36-5.47l2.68-1.45-1.51,2.65c-3.29,5.79-5.73,12-7.25,18.48,15.13-5.26,29.18-11.32,36.71-24.91,.54-.97,1.25-2.89,2.08-5.12,2.78-7.48,6.6-17.71,12.03-17,6.59,.88,11.65,12.81,16.53,24.34,3.11,7.34,6.05,14.27,8.92,17.12,1.18,1.16,2.54,2.43,3.98,3.76,8.29,7.71,19.65,18.28,17.49,29.69-.17,.91-.44,1.82-.69,2.71-.52,1.83-1.03,3.59-.73,5.2,1.44-.47,2.92-1.05,4.34-1.61,1.3-.51,2.62-1.02,3.95-1.48l.09,.26c-.11,.57-.24,1.13-.36,1.68-1.02,.38-2.03,.77-3.04,1.16-1.74,.67-3.54,1.38-5.32,1.92l-.79,.24-.29-.77c-.88-2.37-.19-4.78,.47-7.1,.25-.89,.5-1.72,.65-2.56,1.98-10.46-8.97-20.65-16.97-28.08-1.44-1.34-2.81-2.61-4.01-3.8-3.13-3.08-6.13-10.17-9.31-17.68-4.48-10.56-9.55-22.54-15.15-23.28-4.04-.53-7.88,9.73-10.16,15.87Z"/>
          <path d="M136.34,251.03c-2.13,15.46-2.57,32.77-1.37,54.4,.67,12.18,8.35,24.46,19.55,31.29,4.8,2.92,10.14,3.77,15.81,4.67,.85,.13,1.7,.27,2.55,.41l-.13,1.74c-4.6,.06-9.27-.21-13.78-.46-5.66-.32-11.51-.65-17.23-.34-2.08,.11-4.16,.25-6.22,.38-12.67,.85-25.77,1.72-38.32-3.33-15.11-6.08-28.09-20.97-34.18-37.6-.03-1.88-.03-3.75,0-5.62,4.94,18.14,18.63,35.08,34.82,41.6,12.18,4.9,24.5,4.08,37.55,3.21,2.08-.14,4.16-.28,6.24-.39,5.82-.32,11.72,.02,17.43,.34,.82,.04,1.65,.1,2.48,.14-2.74-.72-5.42-1.72-7.94-3.26-11.68-7.12-19.69-19.95-20.39-32.68-1.2-21.56-.77-38.87,1.33-54.34,.41-.03,.79-.08,1.14-.1,.22-.02,.43-.03,.65-.05Z"/>
          <path class="cls-5" d="M67.47,251.3c.86,2.3-1.56,6.94-3.51,10.66-1.08,2.05-2.1,3.99-2.58,5.52-.26,.82-.59,2.22-.91,3.93-1.75-.72-3.37-1.77-4.73-3.08-1.44-1.39-2.61-3.07-3.41-4.91,3.33-1.84,5.61-5.3,7.59-8.28,2.45-3.71,4.07-5.94,6.16-5.12,.72,.28,1.17,.69,1.4,1.3Z"/>
          <path d="M65.79,337.57c-.37-1.51-.71-3.03-1.03-4.55,.9,1.39,1.75,2.7,2.58,3.82,.03,.04,.06,.09,.1,.13,.02,.06,.03,.12,.04,.18l-1.69,.41Z"/>
          <path d="M65.94,337.88c-.07-.09-.13-.18-.2-.28l.05-.03,1.69-.41c-.02-.06-.03-.12-.04-.18,.38,.52,.73,1.01,1.08,1.49,1.77,2.45,3.17,4.4,5.51,6.3,.48,.38,.94,.77,1.39,1.13,3.56,2.92,6.37,5.24,11.09,7.06l1.55,.61c9.32,3.63,14.95,5.82,27.59,6.54,.44,.02,1.11,.06,1.96,.12,7.11,.47,28.76,1.92,37.97-.48,1.27-.33,2.72,.11,3.61,1.11,.74,.84,.96,1.92,.58,2.91-3.79,9.76-4.91,14.69-6.01,19.46-.17,.76-.34,1.5-.52,2.25-1.43,6.04-1.57,9.85-1.76,15.11-.06,1.77-.15,3.54-.23,5.33-.17,3.56-.33,7.25-.37,11.01l-.02,1.2c0,1.13-.03,2.63-.03,2.96,.09,12.07,.5,23,.9,33.57,.24,6.5,.49,12.83,.64,19.1l-.9-1.07-.87,.03c-.14-5.9-.37-11.86-.6-17.99-.41-10.58-.82-21.53-.91-33.63,0-.33,.02-1.85,.03-2.99l.02-1.19c.03-3.79,.2-7.49,.37-11.07,.09-1.78,.17-3.55,.23-5.31,.2-5.38,.34-9.24,1.81-15.46,.18-.75,.35-1.48,.52-2.23,1.06-4.61,2.24-9.83,6.08-19.7,.19-.48-.03-.87-.24-1.12-.45-.51-1.22-.75-1.86-.58-9.5,2.48-31.36,1.01-38.53,.54-.85-.06-1.51-.1-1.95-.13-12.92-.72-18.65-2.95-28.14-6.65l-1.55-.6c-4.98-1.93-7.87-4.32-11.56-7.34-.45-.37-.91-.75-1.38-1.13-2.52-2.05-4.05-4.18-5.83-6.64-.37-.51-.75-1.04-1.16-1.6Z"/>
          <path class="cls-7" d="M62.29,317.9c.58,5.05,1.41,10.13,2.47,15.12-.17-.27-.36-.55-.53-.83-.98-1.52-1.99-3.1-3.03-4.57-.86-1.22-2.18-3.09-3.55-5.05-2.08-2.97-4.29-6.12-5.27-7.49-.47-.65-.84-1.17-1.13-1.59-.73-1.04-1.07-1.51-1.56-2.08-6.68-7.74-12.83-13.26-22.56-16.63l19.61-30.07c1.48,.06,2.81-.17,4.02-.59,.88,2.04,2.18,3.92,3.79,5.46,1.62,1.55,3.55,2.78,5.65,3.59-.52,3.28-.93,7.29-.83,10.72,.12,4.26,.79,8.57,1.94,12.82-.13,7.05,.21,14.19,1,21.19Z"/>
          <path d="M63.03,296.57c-.03,1.87-.04,3.75,0,5.62-.67-1.81-1.25-3.64-1.74-5.48v-.17l1.75,.03Z"/>
          <path d="M64.76,333.02c-1.07-4.99-1.89-10.07-2.47-15.12-.79-7-1.13-14.13-1-21.19,.49,1.84,1.07,3.68,1.74,5.48,.08,5.19,.42,10.38,1,15.5,.74,6.47,1.89,12.96,3.41,19.28-.03-.04-.06-.09-.1-.13-.83-1.13-1.68-2.44-2.58-3.82Z"/>
          <path d="M61.43,271.77l-.56,1.66c-.24-.08-.47-.17-.7-.26,.1-.62,.19-1.2,.3-1.76,.31,.14,.64,.26,.96,.37Z"/>
          <path d="M62.17,271.9c-.61,3.4-1.19,8.1-1.07,11.94,.12,4.23,.79,8.51,1.94,12.73l-1.75-.03v.17c-1.14-4.25-1.82-8.56-1.94-12.82-.1-3.43,.31-7.44,.83-10.72,.23,.1,.46,.18,.7,.26l.56-1.66,.73,.13Z"/>
          <path d="M55.74,268.32c1.36,1.31,2.98,2.37,4.73,3.08-.1,.56-.2,1.14-.3,1.76-2.1-.8-4.03-2.03-5.65-3.59-1.61-1.54-2.91-3.41-3.79-5.46,.56-.19,1.08-.44,1.59-.72,.8,1.84,1.97,3.53,3.41,4.91Z"/>
          <path d="M52.03,262.67c.1,.24,.19,.49,.3,.73-.51,.28-1.03,.52-1.59,.72-.12-.28-.24-.56-.34-.84l1.63-.61Z"/>
          <path d="M69.11,250.68c1.14,3.05-1.27,7.64-3.6,12.09-1.04,1.98-2.03,3.86-2.47,5.24-.24,.79-.57,2.17-.87,3.89l-.73-.13c-.32-.1-.65-.23-.96-.37,.31-1.71,.65-3.11,.91-3.93,.49-1.53,1.5-3.47,2.58-5.52,1.95-3.72,4.37-8.35,3.51-10.66-.23-.61-.67-1.02-1.4-1.3-2.1-.82-3.71,1.41-6.16,5.12-1.97,2.99-4.25,6.44-7.59,8.28-.1-.24-.2-.49-.3-.73l-1.63,.61-.3-.8c3.7-1.31,6.15-4.99,8.35-8.32,2.06-3.13,4.02-6.09,6.72-6.09,.49,0,1,.1,1.54,.31,1.19,.46,1.99,1.24,2.39,2.3Z"/>
          <path d="M47,264.29l-.28,.43c-.17,0-.35-.02-.52-.03-.43-.03-.87-.15-1.33-.31l.67-1.03,1.46,.95Z"/>
          <path d="M46.72,264.71l-19.61,30.07c-.36-.13-.72-.25-1.08-.37-.21-.07-.43-.13-.64-.19l19.48-29.86c.45,.17,.9,.28,1.33,.31,.17,.02,.35,.03,.52,.03Z"/>
          <path class="cls-5" d="M44.87,264.37l-19.48,29.86c-4.09-1.24-8.31-1.72-12.41-2.17-2.73-.31-5.55-.63-8.28-1.17-.43-.08-.8-.43-1.04-.94-.29-.62-.3-1.33-.02-1.8,.15-.27,.45-.46,.66-.57,.67-.33,1.45-.48,2.28-.64,.26-.05,.52-.1,.78-.16,1.55-.33,3.13-.55,4.65-.76h.1c1.75-.25,3.57-.51,5.34-.91,1.03-.24,1.84-.47,2.58-.72,.12-.04,.24-.09,.37-.12,.45-.15,.95-.31,1.41-.62,.49-.32,.81-.78,.93-1.27,.36-1.58-1.5-2.65-2.86-3.44-.29-.17-.54-.31-.71-.43l-.34-.25c-.97-.71-1.94-1.42-2.92-2.1-3.97-2.75-8.56-6.01-12.56-9.89-.64-.62-1.34-1.84-1.34-2.73,0-.41,.15-.6,.26-.72,.17-.17,.45-.31,.67-.4,3-1.28,6.43-.17,8.76,.77,1.79,.72,3.55,1.62,5.26,2.5,.58,.3,1.16,.59,1.75,.89l.48,.24c1.66,.84,3.55,1.79,5.53,1.91,1.92,.11,3.23-.36,3.9-1.39,1.46-2.22-.52-6.11-2.8-10.62-1.85-3.68-3.96-7.83-3.09-9.57,.09-.17,.34-.69,1.48-.9,1.89-.32,6.3,4.52,9.85,8.43,3.95,4.36,7.72,8.52,10.82,9.7Z"/>
          <path d="M27.12,294.79l-.62,.94-.54-.35-.92-.6,.36-.55c.21,.06,.43,.12,.64,.19,.37,.11,.72,.24,1.08,.37Z"/>
          <path d="M61.2,327.62c1.04,1.47,2.05,3.05,3.03,4.57,.17,.28,.36,.56,.53,.83,.32,1.52,.66,3.04,1.03,4.55l-.05,.03c-.97-1.33-1.95-2.85-2.98-4.47-.98-1.5-1.97-3.06-2.99-4.5-.86-1.22-2.17-3.1-3.55-5.06-2.07-2.95-4.28-6.1-5.26-7.46-.48-.66-.85-1.18-1.14-1.6-.72-1.02-1.03-1.44-1.47-1.96-6.72-7.79-12.89-13.26-22.85-16.47l.45-.7,.54,.35,.62-.94c9.72,3.37,15.88,8.89,22.56,16.63,.49,.57,.83,1.04,1.56,2.08,.3,.42,.66,.93,1.13,1.59,.99,1.37,3.2,4.52,5.27,7.49,1.37,1.96,2.69,3.82,3.55,5.05Z"/>
          <path d="M291,294.81c-1.2,1.4-2.75,2.85-4.24,4.23-.97,.91-1.97,1.83-2.83,2.71-.05,.05-.1,.1-.16,.14-.13,.21-.28,.4-.43,.59-.2,.25-.38,.47-.45,.69-1.48,4.52,1.03,9.65,3.26,14.17,.31,.63,.6,1.24,.88,1.82,2.49,5.26,5.44,10.36,8.76,15.15,4.4,6.32,9.66,12.2,14.74,17.9,1.34,1.5,2.67,2.99,3.99,4.5,7.65-6.08,11.99-14.18,13.28-24.75,.65-5.34,.92-10.97,.8-16.75-.07-3.38-.52-6.8-.93-10.12-.21-1.62-.43-3.3-.6-4.97-.16-1.58-.31-3.17-.47-4.76-.87-9.12-1.79-18.56-4.79-27.34-1.34-3.89-3.13-7.77-5.33-11.51-5.33-9.08-12.92-17-20.26-24.65-1.07-1.12-2.14-2.23-3.2-3.33-2.06-2.16-4.18-4.35-6.25-6.46-5.78-5.92-11.75-12.05-16.94-18.65l-.44-.56,.45-.55c.47-.56,.48-.56,3.69,1.17,1.57,.84,3.68,1.98,5.87,3.16,4.11,2.22,9.18,4.96,10.1,5.41l.16,.06c8.66,3.66,16.6,6.38,24.29,8.34,3.73,.94,7.52,1.7,11.38,2.46,2.94,.57,5.4,.96,8.04,.32,2.66-.65,5.05-2.23,7.37-3.77,.52-.35,1.04-.7,1.56-1.03,1-.64,1.97-1.29,2.94-1.95,2.33-1.57,4.74-3.19,7.35-4.5,.86-.43,1.81-.45,2.61-.04,.79,.39,1.34,1.13,1.51,2.05,1.13,6.08,.94,11.72-.63,17.68,3.12-.83,5.94-2.19,8.94-3.64,2.1-1.01,4.26-2.06,6.52-2.89,1.04-.38,2.12-.18,2.88,.54,.81,.77,1.1,1.96,.74,3.1-.44,1.42-1.13,2.78-1.81,4.08-.31,.6-.6,1.18-.87,1.75,8.68,3.21,17.47,4.88,25.67,6.21,1.91,.31,3.78,.61,5.66,.93,2.24,.37,4.5,.74,6.85,1.12,4.73,.76,9.71,1.91,13.99,5.19,0,0,.02,0,.02,0,.16-.08,.31-.11,.45-.12-3.06-11.68-8.6-22.82-16.47-33.14l-.64-.83c-1.74-2.29-3.54-4.64-5.35-6.92-8.37-10.55-15.97-17.35-24.64-22.08-9.04-4.91-21.23-8.28-37.27-10.27-12.33-1.52-24.78-1.37-37,.45-6.14,.92-12.22,2.26-18.1,4.01-1.88,.55-3.72,1.34-5.51,2.1-.86,.37-1.73,.73-2.6,1.08-.45,.17-.9,.38-1.37,.58-1.64,.72-3.51,1.54-5.35,1.55-.56,0-2.01,0-2.3-1.06-.32-1.17,1.02-2.2,4.16-4.08,.32-.2,.6-.36,.78-.48,5.53-3.62,11.3-7.03,17.12-10.14,8.46-4.5,19.74-9.84,31.98-11.19,1.07-.11,2.15-.2,3.21-.29,1.82-.15,3.71-.31,5.52-.62,.16-.03,.26-.04,.31-.07,0,0,0-.07,.02-.17,.03-.69-.24-1.41-.52-2.16-.16-.39-.31-.79-.42-1.18-.45-1.58-.21-3.61,1.41-4.37,1.55-.73,3.17,.3,3.95,.79l6.04,3.84c.1-.89-.07-3.13-1.02-8.37-.11-.62-.2-1.08-.23-1.29-.2-1.55,.1-4.87,.62-6.84,.24-.9,1.03-1.69,2.03-2.03,.93-.31,1.87-.17,2.58,.39,1.75,1.38,4.07,3.46,5.33,4.99,2.01,2.44,3.39,4.61,4.85,6.91,.3,.46,.6,.94,.93,1.43,14.4-6.56,26.6-11.72,40.93-13.38,4.91-.58,9.71,.31,14.34,1.15,1.2,.22,2.4,.44,3.61,.64,1.11,.18,2.22,.38,3.33,.58,4.36,.79,8.48,1.54,12.79,1.13-8.52-14.41-23.68-22.63-38.35-30.58l-.31-.17c-4.45-2.42-9.06-4.91-13.96-6.31-7.25-2.06-13.98-.38-19.61,1.55-1.17,.39-2.33,.2-3.12-.53-.77-.72-1.04-1.82-.73-2.97,.36-1.34,.97-2.54,1.55-3.7,.37-.72,.72-1.39,1-2.1-4.03-.86-8.2-1.48-12.37-1.83-12.79-1.09-25.68,.19-38.32,3.81-14.95,4.28-25.7,10.18-33.85,18.56-5.26,5.42-8.73,11.63-12.4,18.19l-.46,.83c-1.35,2.42-2.8,4.85-4.3,7.24-.79,1.26-1.6,2.51-2.42,3.75-.17,.26-.45,.58-.76,.97-.43,.52-1.31,1.59-1.37,1.96l-1.75-.1,.1-2.09c.58-11.08,1.07-22.99,.87-35.13l-.03-2.17c-.12-8.65-.25-17.59-2.59-25.74-4.57-15.95-10.51-23.88-18.04-33.92-.79-1.05-1.58-2.11-2.4-3.21-8.39-11.31-19.39-20.69-35.68-30.42-5.94-3.55-12.4-5.64-19.04-7.64-5.45-1.63-11.41-2.12-18.22-1.5,.39,1.59,1.09,2.97,2.3,4.52,.6,.79,1.22,1.53,1.84,2.27,1.27,1.54,2.6,3.13,3.74,4.99,1.22,2.02,2.37,4.03,3.47,5.99,1.77,3.12,3.6,6.35,5.77,9.59,1.98,2.96,4.11,6.78,5.99,10.16,.42,.76,.83,1.5,1.23,2.22,.27,.47,.73,.78,1.26,.81,1.32,.1,2.68,.05,4.11,0,1.55-.05,3.15-.11,4.73,.03,1.2,.1,2.18,.84,2.58,1.9,.38,1.04,.11,2.15-.71,2.99-1.39,1.41-3.01,2.56-4.59,3.67-.91,.64-1.84,1.3-2.71,2,5.5,3.67,11.49,5.17,17.82,6.75,.97,.24,1.94,.49,2.92,.74,1.08,.28,1.89,1.05,2.12,2.06,.24,1.04-.14,2.15-1,2.91-1.2,1.06-2.61,1.83-3.97,2.58-1.01,.56-1.97,1.09-2.84,1.72-5.69,4.13-8.6,10.12-8.42,17.3,.2,8,4.35,14.98,8.22,20.91,.77,1.16,3.2,5.12,2.58,7.17-.17,.55-.52,.96-1.03,1.18-1.38,.59-2.71-1.26-3.69-2.61-.17-.24-.3-.43-.39-.53-.82-.93-1.64-1.96-2.44-2.95-1.55-1.95-3.16-3.95-4.94-5.51-1.34-1.07-2.34-2.08-3.31-3.05-1.3-1.29-2.53-2.51-4.43-3.75-10.24-6.68-21.11-10.9-32.61-15.37l-.34-.13c.56,1.31,1.19,2.63,1.81,3.9,.88,1.82,1.79,3.72,2.51,5.65,.47,1.24,.1,2.58-.93,3.4s-2.42,.89-3.53,.17c-1.5-.99-2.89-2.2-4.23-3.37-1.27-1.11-2.58-2.25-3.95-3.17-.67-.45-1.34-.89-1.99-1.34-4.19-2.84-8.14-5.52-13.36-6.29-11.45-1.71-23.57-.64-36,3.2-12.69,3.91-24,9.14-36.67,16.94-9.52,5.87-17.39,13.63-23.4,23.08,8.51-.4,18.32-.64,27.94,1.22,7.37,1.42,14.33,4.08,21.05,6.65,1.96,.75,3.94,1.51,5.93,2.23,3.99,1.46,7.62,2.69,11.65,2.92,2.05,.12,4.18-.17,6.34-.86,1.62-.52,2.75-.87,3.36-1.05,.05-.03,.12-.06,.2-.1,1.03-.5,1.98-1.02,2.99-1.57,1.21-.66,2.46-1.35,3.88-2,1.01-.47,2.23-.15,3.12,.81,.87,.95,1.09,2.22,.56,3.15-.85,1.48-1.69,2.72-2.51,3.93-.65,.97-1.27,1.89-1.89,2.9,5.84,1.32,11.41,2.44,16.58,3.33,.14,.02,.39,.06,.49,.07h0s.03-.03,.04-.03c.11-.05,.26-.13,.48-.22,.89-.37,1.69-.84,2.54-1.34,.94-.56,1.92-1.13,3.1-1.6,1.07-.42,2.26-.17,3.1,.68,.84,.84,1.1,2.06,.67,3.12-.2,.5-.44,.95-.67,1.38-.02,.03-.03,.04-.03,.06,1.04-.17,2.18-.5,3.29-.82,1.5-.44,3.06-.88,4.47-1,1.05-.08,2.05,.38,2.65,1.2,.58,.79,.7,1.8,.32,2.78-.16,.39-.35,.85-.55,1.34-.33,.79-.7,1.69-.94,2.4-.18,.53-.18,.92,0,1.14,.82,1.01,4.62,.54,6.23,.34,.5-.06,.93-.11,1.23-.13,6.52-.45,13.88-.04,21.88,1.23,7.01,1.11,12.77,5.02,16.38,8.11,1.15,.99,2.31,2.09,2.68,3.62l.15,.6-.53,.33c-2.23,1.41-5.77-.03-8.9-1.3-1.43-.58-2.78-1.13-3.7-1.27-5.19-.79-10.43-1.2-16.7-1.57-10.49-.62-21.65-.58-33.15,.1-11.78,.69-22.33,1.6-32.22,5.66-15.82,6.49-29.62,16.3-43.54,26.64-9.04,6.71-17.55,14.54-26.01,23.95-2.3,2.56-4.2,5.23-6.44,8.46-1.75,2.52-2.52,4.95-2.33,7.41,1.11,.24,2.02,.53,3.16,.89,1.86,.58,4.4,1.39,9.45,2.51,5.91,1.3,6.61,.63,8.01-.72,.52-.5,1.15-1.11,2.1-1.73,2.1-1.36,4.18-2.95,6.18-4.49,2.09-1.61,4.24-3.26,6.49-4.71,.12-.08,.22-.12,.32-.16,1.48-.47,2.92-.1,3.68,.93,.72,.97,.65,2.24-.18,3.42-.94,1.34-2.05,2.51-3.13,3.65-.9,.95-1.75,1.86-2.51,2.85l.81,.03c7.75,.29,15.08,.55,23.11,.29,5.61-.19,12.48-.84,21.01-1.98,.19-.03,.32-.03,.43-.03,.1-.09,.24-.2,.45-.36,2.01-1.51,4.02-3.06,6.04-4.63,5.23-4.05,10.64-8.23,16.32-11.88,1.08-.7,2.56-.49,3.51,.49,.96,1,1.06,2.38,.26,3.55-2.4,3.5-5.02,7.03-7.55,10.45-.86,1.16-1.72,2.32-2.57,3.47,3.47-.31,6.81-2.45,9.79-4.36,1.03-.65,2-1.27,2.97-1.82l.31-.17c1.24-.72,1.75-1,3.17-.4,2.58,1.09,1.73,3.31,1.33,4.37-.41,1.07-1.74,2.56-3.01,4-.86,.96-1.83,2.06-2.09,2.58-.5,1.04-.65,1.83-.41,2.17,.51,.72,2.99,.45,4.47,.29,.14-.02,.28-.03,.41-.04l.07,.72c-.05,.35-.1,.7-.15,1.05-.04,0-.1,0-.15,.02-2.34,.25-4.98,.54-6.08-1.02-.65-.93-.57-2.21,.26-3.94,.36-.73,1.28-1.77,2.35-2.98,1.07-1.2,2.39-2.69,2.69-3.47,.65-1.7,.33-1.84-.38-2.14q-.63-.26-1.62,.31l-.32,.18c-.92,.52-1.88,1.13-2.88,1.78-3.63,2.32-7.76,4.95-12.31,4.65-.36-.03-.68-.24-.83-.57-.16-.32-.12-.71,.09-1,1.14-1.57,2.31-3.14,3.48-4.72,2.51-3.4,5.12-6.91,7.51-10.39,.45-.65,.14-1.13-.08-1.34-.31-.33-.87-.52-1.31-.24-5.62,3.61-11,7.77-16.19,11.79-2.03,1.57-4.05,3.13-6.06,4.64-.22,.17-.36,.27-.45,.34-.28,.24-.45,.35-.86,.36-.07,0-.18,0-.38,.03-8.59,1.14-15.52,1.8-21.19,1.98-5.05,.17-9.83,.13-14.6,0-2.85-.08-5.72-.18-8.63-.29l-1.54-.05c-.5-.02-.93-.3-1.15-.74-.23-.47-.18-1.04,.13-1.48,.92-1.28,2-2.44,3.05-3.54,1.08-1.14,2.1-2.23,2.97-3.46,.38-.54,.45-1.05,.21-1.39-.24-.33-.86-.56-1.67-.32-2.19,1.41-4.31,3.03-6.36,4.6-2.03,1.56-4.13,3.17-6.29,4.57-.81,.52-1.34,1.03-1.85,1.52-1.82,1.75-3.08,2.6-9.59,1.16-4.2-.93-6.7-1.64-8.49-2.2-.39-.12-.76-.24-1.1-.34-1.13-.36-2.04-.64-3.13-.87-.68-.16-1.18-.72-1.24-1.41-.26-2.89,.63-5.81,2.62-8.69,2.28-3.28,4.22-6,6.59-8.63,8.54-9.5,17.13-17.41,26.26-24.19,14.01-10.41,27.91-20.29,43.91-26.85,10.14-4.16,20.85-5.08,32.78-5.79,11.57-.68,22.79-.72,33.36-.1,6.32,.38,11.6,.79,16.86,1.59,1.12,.17,2.57,.76,4.09,1.38,2.26,.92,5,2.03,6.65,1.69-.4-.73-1.13-1.4-1.84-2.02-3.43-2.93-8.91-6.66-15.51-7.71-7.87-1.25-15.1-1.66-21.49-1.21-.28,.02-.67,.07-1.13,.12-3.23,.4-6.48,.65-7.8-.96-.4-.51-.79-1.4-.31-2.81,.26-.77,.65-1.69,1-2.51,.19-.47,.38-.92,.52-1.29,.17-.43,.13-.81-.1-1.12-.24-.33-.67-.52-1.11-.49-1.24,.09-2.71,.52-4.13,.93-1.75,.51-3.56,1.03-5.18,1.03h-1.27s.41-1.16,.41-1.16c.2-.58,.48-1.1,.76-1.61,.22-.41,.43-.8,.58-1.2,.2-.5-.02-.97-.29-1.25-.12-.12-.59-.52-1.22-.27-1.05,.41-1.96,.95-2.85,1.48-.86,.51-1.75,1.03-2.76,1.44-.17,.07-.29,.12-.38,.17-.57,.28-.82,.25-1.61,.12-5.36-.93-11.17-2.1-17.24-3.48-.61-.14-.81-.66-.89-.86,0,0,0-.02,0-.02l-.33-.42,.3-.52c.78-1.33,1.57-2.5,2.34-3.63,.79-1.18,1.62-2.41,2.44-3.81,.16-.27,.02-.73-.33-1.11-.29-.32-.74-.57-1.09-.41-1.36,.63-2.58,1.3-3.76,1.95-.99,.54-2,1.1-3.07,1.62l-.09,.04c-.09,.08-.23,.12-.35,.16-.58,.17-1.7,.52-3.35,1.04-2.36,.76-4.7,1.08-6.98,.95-4.25-.24-8.01-1.51-12.13-3.02-2.01-.73-3.98-1.49-5.95-2.24-6.97-2.66-13.54-5.18-20.76-6.57-9.66-1.87-19.57-1.58-28.12-1.16-.56,.03-1.13-.27-1.4-.74-.24-.41-.24-.9,.02-1.3,6.19-9.99,14.4-18.16,24.36-24.3,12.63-7.78,24.41-13.23,37.08-17.13,12.68-3.92,25.06-5.02,36.77-3.26,5.6,.84,9.72,3.63,14.08,6.58,.65,.44,1.31,.88,1.97,1.33,1.48,.97,2.83,2.16,4.14,3.3,1.3,1.13,2.64,2.3,4.04,3.22,.57,.38,1.13,.21,1.48-.06,.34-.28,.62-.79,.38-1.42-.69-1.86-1.59-3.71-2.44-5.5-.71-1.47-1.44-2.98-2.06-4.5-.24-.57-.11-1.2,.31-1.64,.42-.43,1.07-.57,1.62-.35l.86,.33c11.59,4.51,22.55,8.77,32.94,15.54,2.05,1.34,3.34,2.63,4.71,3.99,.94,.93,1.91,1.9,3.2,2.94,1.93,1.68,3.59,3.75,5.19,5.75,.81,1.02,1.58,1.98,2.37,2.89,.11,.13,.29,.37,.51,.66,.3,.42,1.15,1.61,1.64,1.93,.24-.91-1.05-3.65-2.38-5.69-4.01-6.12-8.3-13.37-8.51-21.82-.19-7.79,2.97-14.27,9.15-18.76,.95-.69,2-1.27,3.01-1.83,1.34-.73,2.61-1.43,3.67-2.37,.38-.33,.56-.78,.46-1.19-.1-.38-.4-.66-.86-.79-.98-.24-1.95-.49-2.92-.73-6.63-1.66-12.9-3.23-18.78-7.27-.37-.25-.58-.65-.6-1.07-.02-.44,.17-.86,.54-1.17,1-.84,2.1-1.61,3.15-2.36,1.51-1.07,3.07-2.16,4.35-3.46,.35-.36,.46-.77,.31-1.16-.16-.43-.58-.72-1.09-.77-1.47-.13-3.01-.07-4.5-.02-1.42,.06-2.89,.11-4.31,0-1.1-.09-2.1-.72-2.65-1.7-.4-.72-.81-1.46-1.24-2.23-1.86-3.34-3.97-7.13-5.91-10.04-2.21-3.3-4.06-6.56-5.84-9.71-1.1-1.94-2.23-3.95-3.45-5.94-1.07-1.76-2.29-3.23-3.58-4.78-.63-.76-1.27-1.52-1.89-2.32-1.45-1.87-2.29-3.61-2.71-5.62-.08-.38,0-.79,.24-1.12,.24-.31,.58-.52,.96-.55,7.22-.71,13.53-.2,19.32,1.54,6.75,2.03,13.31,4.15,19.43,7.8,16.49,9.86,27.65,19.39,36.18,30.89,.81,1.1,1.61,2.16,2.39,3.2,7.64,10.18,13.66,18.22,18.32,34.48,2.39,8.37,2.52,17.42,2.65,26.19l.03,2.17c.2,11.77-.26,23.33-.81,34.11,.21-.26,.4-.5,.51-.65,.81-1.23,1.62-2.47,2.4-3.73,1.48-2.35,2.91-4.76,4.24-7.16l.46-.82c3.73-6.67,7.25-12.97,12.68-18.56,8.36-8.62,19.36-14.66,34.61-19.03,12.83-3.68,25.94-4.98,38.94-3.87,4.33,.37,8.65,1.01,12.83,1.91,.44,.1,.81,.38,1.02,.78,.22,.4,.25,.87,.09,1.3-.34,.86-.75,1.68-1.16,2.47-.57,1.13-1.12,2.19-1.42,3.35-.14,.52-.05,.98,.24,1.25,.31,.29,.81,.34,1.37,.16,5.88-2.02,12.94-3.77,20.65-1.57,5.08,1.45,9.77,3.99,14.32,6.45l.31,.17c14.98,8.12,30.47,16.52,39.19,31.53,.26,.45,.28,.99,.04,1.46-.24,.45-.67,.77-1.18,.82-4.7,.52-9.24-.31-13.64-1.1-1.1-.2-2.19-.4-3.29-.58-1.22-.19-2.43-.42-3.64-.64-4.72-.86-9.18-1.68-13.83-1.14-14.18,1.66-26.31,6.81-40.71,13.38l-.24,.1-.38-.05c-.25-.03-.79-.07-1.17-.65-.36-.56-.7-1.1-1.03-1.62-1.5-2.34-2.79-4.36-4.73-6.73-1.17-1.43-3.44-3.46-5.05-4.73-.32-.26-.72-.17-.94-.1-.44,.15-.79,.48-.88,.81-.5,1.88-.73,4.96-.58,6.16,.03,.2,.1,.63,.21,1.21,1.21,6.67,1.35,9.24,.57,10.19-.24,.29-.57,.45-.93,.45-.52,0-.93-.26-1.18-.42l-6.14-3.91c-.78-.5-1.66-.97-2.26-.68-.63,.3-.73,1.41-.47,2.3,.1,.35,.24,.7,.38,1.05,.33,.89,.68,1.82,.63,2.87-.03,.55-.18,.97-.48,1.28-.42,.45-.99,.55-1.29,.6-1.89,.32-3.81,.48-5.67,.63-1.06,.09-2.11,.17-3.17,.29-11.94,1.32-23.03,6.57-31.35,11-5.78,3.08-11.5,6.46-16.98,10.06-.19,.12-.49,.3-.84,.51-.58,.36-2.08,1.25-2.88,1.89h.12c1.48,0,3.1-.72,4.66-1.4,.49-.21,.96-.42,1.42-.6,.86-.34,1.71-.71,2.57-1.07,1.83-.78,3.73-1.59,5.69-2.16,5.95-1.76,12.13-3.13,18.33-4.05,12.38-1.85,24.98-2,37.47-.45,16.26,2.02,28.66,5.44,37.9,10.47,8.88,4.84,16.65,11.79,25.17,22.51,1.82,2.3,3.62,4.66,5.37,6.95l.64,.84c8.16,10.69,13.86,22.28,16.94,34.42,.13,.52-.03,1.02-.41,1.35-.41,.36-1.01,.46-1.55,.26-.65,.17-1.11-.08-1.34-.26-3.99-3.09-8.75-4.2-13.29-4.92-2.35-.38-4.61-.75-6.86-1.12-1.87-.31-3.74-.61-5.65-.93-8.42-1.35-17.43-3.07-26.37-6.43-.36-.14-.65-.42-.79-.77-.15-.36-.14-.75,.02-1.1,.33-.73,.71-1.47,1.07-2.17,.64-1.24,1.3-2.52,1.69-3.8,.19-.6-.02-1.07-.28-1.32-.28-.26-.65-.32-1.07-.17-2.17,.8-4.3,1.83-6.36,2.83-3.12,1.51-6.34,3.06-9.87,3.92-.47,.11-.96-.03-1.29-.38-.36-.37-.49-.92-.35-1.43,1.62-5.89,1.85-11.42,.72-17.41-.07-.37-.27-.65-.57-.8-.31-.16-.69-.14-1.06,.04-2.51,1.26-4.77,2.78-7.16,4.38-.98,.66-1.96,1.33-2.97,1.97-.52,.32-1.02,.66-1.54,1-2.44,1.62-4.96,3.3-7.94,4.02-2.98,.72-5.74,.29-8.77-.31-3.89-.76-7.71-1.53-11.48-2.48-7.77-1.97-15.8-4.73-24.54-8.42v-.03c-.54-.21-1.5-.72-3.39-1.74-1.96-1.05-4.53-2.44-7.02-3.78-1.58-.86-3.24-1.75-4.66-2.51,4.45,5.29,9.35,10.3,14.12,15.18,2.06,2.11,4.2,4.3,6.26,6.48,1.06,1.11,2.12,2.22,3.19,3.33,7.41,7.73,15.08,15.72,20.52,24.98,2.26,3.85,4.1,7.82,5.47,11.83,3.07,8.97,4,18.52,4.89,27.74,.15,1.58,.31,3.17,.46,4.75,.17,1.64,.38,3.31,.59,4.91,.43,3.36,.87,6.84,.95,10.31,.12,5.86-.16,11.58-.81,17-1.36,11.2-6.03,19.76-14.26,26.16-.24,.18-.51,.26-.77,.26-.42,0-.83-.19-1.09-.49-1.39-1.58-2.78-3.15-4.2-4.73-5.12-5.73-10.41-11.65-14.86-18.06-3.39-4.87-6.38-10.05-8.91-15.4-.27-.58-.57-1.19-.87-1.81-2.25-4.58-5.05-10.28-3.34-15.48,.17-.52,.47-.9,.74-1.24,.12-.15,.24-.3,.34-.46,.11-.18,.24-.3,.33-.37,.92-.94,1.94-1.89,2.92-2.8,1.46-1.36,2.97-2.77,4.1-4.09,.23-.26,.72-.91,.48-1.27-.31-.48-1.58-.79-2.71-.46-2.3,.67-4.67,1.84-6.95,2.97-1.17,.58-2.38,1.19-3.56,1.7-.91,.39-1.58,.34-2-.16-.31-.38-.34-.86-.2-1.39,.14-.57,.47-1.16,.8-1.66,.17-.27,.45-.67,.73-1.08,.26-.38,.53-.78,.72-1.05,.72-1.08,1.55-2.06,2.33-3.01,.78-.93,1.5-1.8,2.15-2.76,.25-.37,.32-.85,.19-1.22-.1-.29-.31-.48-.61-.58-.53-.17-1.2-.03-1.8,.07-1.1,.2-2.22,.5-3.33,.85,.05-.23,.1-.45,.15-.68l-1.71-.35-.09-.26c1.54-.53,3.1-.99,4.66-1.27,.76-.13,1.69-.31,2.63-.02,.84,.26,1.46,.85,1.74,1.67,.31,.89,.17,1.96-.38,2.78-.7,1.03-1.48,1.98-2.25,2.9-.76,.92-1.55,1.86-2.23,2.86-.18,.28-.45,.67-.72,1.07-.28,.4-.55,.8-.72,1.07-.09,.13-.17,.27-.24,.41,.97-.45,1.95-.93,2.98-1.44,2.35-1.16,4.78-2.37,7.25-3.08,1.61-.47,3.8-.15,4.66,1.19,.36,.56,.76,1.75-.62,3.36Z"/>
          <path d="M23.89,244.52c.58-.1,1.2,0,1.86,.25,2.63,1.03,5.91,4.66,9.59,8.72,3.92,4.32,8.36,9.22,11.01,9.45,1.39,.12,2.63-.06,3.75-.46l.3,.8c.1,.28,.22,.56,.34,.84-1.2,.43-2.53,.65-4.02,.59l.28-.43-1.46-.95-.67,1.03c-3.11-1.18-6.88-5.33-10.82-9.7-3.54-3.91-7.96-8.76-9.85-8.43-1.14,.21-1.4,.72-1.48,.9-.87,1.74,1.24,5.89,3.09,9.57,2.29,4.51,4.26,8.41,2.8,10.62-.67,1.03-1.98,1.5-3.9,1.39-1.98-.12-3.88-1.07-5.53-1.91l-.48-.24c-.58-.3-1.17-.59-1.75-.89-1.7-.87-3.47-1.77-5.26-2.5-2.33-.94-5.76-2.05-8.76-.77-.22,.1-.5,.23-.67,.4-.11,.11-.26,.31-.26,.72,0,.89,.71,2.11,1.34,2.73,4.01,3.88,8.59,7.14,12.56,9.89,.99,.68,1.96,1.4,2.92,2.1l.34,.25c.17,.11,.42,.25,.71,.43,1.36,.79,3.22,1.86,2.86,3.44-.11,.5-.44,.95-.93,1.27-.45,.31-.96,.47-1.41,.62-.12,.03-.24,.08-.37,.12-.73,.25-1.55,.49-2.58,.72-1.77,.4-3.59,.65-5.34,.9h-.1c-1.53,.22-3.1,.44-4.65,.77-.25,.06-.52,.1-.78,.16-.83,.16-1.61,.31-2.28,.64-.22,.1-.52,.3-.66,.57-.28,.47-.27,1.18,.02,1.8,.24,.52,.61,.86,1.04,.94,2.73,.54,5.55,.86,8.28,1.17,4.1,.45,8.33,.93,12.41,2.17l-.36,.55,.92,.6-.45,.7c-4.12-1.33-8.49-1.82-12.71-2.29-2.77-.31-5.63-.64-8.42-1.19-.99-.2-1.82-.9-2.3-1.94-.52-1.13-.5-2.43,.05-3.39,.3-.52,.79-.96,1.41-1.27,.89-.45,1.82-.62,2.73-.79,.24-.05,.49-.1,.73-.15,1.62-.35,3.22-.57,4.78-.79h.1c1.71-.25,3.49-.5,5.19-.88,.95-.22,1.71-.44,2.37-.67,.13-.04,.27-.1,.42-.14,.37-.11,.72-.23,.97-.4,.11-.08,.18-.17,.19-.22-.06-.4-1.55-1.26-2.03-1.54-.36-.21-.66-.38-.86-.53l-.34-.24c-.96-.71-1.91-1.41-2.89-2.09-4.03-2.78-8.68-6.09-12.78-10.07-.75-.72-1.86-2.38-1.88-3.98,0-.78,.26-1.46,.78-1.96,.38-.38,.86-.61,1.22-.77,3.6-1.54,7.48-.31,10.1,.76,1.86,.75,3.66,1.67,5.4,2.56,.58,.3,1.15,.59,1.73,.88l.49,.24c1.59,.79,3.23,1.62,4.85,1.72,.86,.05,1.96-.02,2.34-.6,.9-1.37-1.2-5.53-2.9-8.88-2.24-4.43-4.36-8.61-3.1-11.14,.48-.97,1.41-1.59,2.73-1.82Z"/>
        </g>
        <g>
          <path class="cls-2" d="M274.27,283.33c1.54-.53,3.1-.99,4.66-1.27,.76-.13,1.69-.31,2.63-.02,.84,.26,1.46,.85,1.74,1.67,.31,.89,.17,1.96-.38,2.78-.7,1.03-1.48,1.98-2.25,2.9-.76,.92-1.55,1.86-2.23,2.86-.18,.28-.45,.67-.72,1.07-.28,.4-.55,.8-.72,1.07-.09,.13-.17,.27-.24,.41,.97-.45,1.95-.93,2.98-1.44,2.35-1.16,4.78-2.37,7.25-3.08,1.61-.47,3.8-.15,4.66,1.19,.36,.56,.76,1.75-.62,3.36-1.2,1.4-2.75,2.85-4.24,4.23-.97,.91-1.97,1.83-2.83,2.71-.05,.05-.1,.1-.16,.14-.13,.21-.28,.4-.43,.59-.2,.25-.38,.47-.45,.69-1.48,4.52,1.03,9.65,3.26,14.17,.31,.63,.6,1.24,.88,1.82,2.49,5.26,5.44,10.36,8.76,15.15,4.4,6.32,9.66,12.2,14.74,17.9,1.34,1.5,2.67,2.99,3.99,4.5,7.65-6.08,11.99-14.18,13.28-24.75,.65-5.34,.92-10.97,.8-16.75-.07-3.38-.52-6.8-.93-10.12-.21-1.62-.43-3.3-.6-4.97-.16-1.58-.31-3.17-.47-4.76-.87-9.12-1.79-18.56-4.79-27.34-1.34-3.89-3.13-7.77-5.33-11.51-5.33-9.08-12.92-17-20.26-24.65-1.07-1.12-2.14-2.23-3.2-3.33-2.06-2.16-4.18-4.35-6.25-6.46-5.78-5.92-11.75-12.05-16.94-18.65l-.44-.56,.45-.55c.47-.56,.48-.56,3.69,1.17,1.57,.84,3.68,1.98,5.87,3.16,4.11,2.22,9.18,4.96,10.1,5.41l.16,.06c8.66,3.66,16.6,6.38,24.29,8.34,3.73,.94,7.52,1.7,11.38,2.46,2.94,.57,5.4,.96,8.04,.32,2.66-.65,5.05-2.23,7.37-3.77,.52-.35,1.04-.7,1.56-1.03,1-.64,1.97-1.29,2.94-1.95,2.33-1.57,4.74-3.19,7.35-4.5,.86-.43,1.81-.45,2.61-.04,.79,.39,1.34,1.13,1.51,2.05,1.13,6.08,.94,11.72-.63,17.68,3.12-.83,5.94-2.19,8.94-3.64,2.1-1.01,4.26-2.06,6.52-2.89,1.04-.38,2.12-.18,2.88,.54,.81,.77,1.1,1.96,.74,3.1-.44,1.42-1.13,2.78-1.81,4.08-.31,.6-.6,1.18-.87,1.75,8.68,3.21,17.47,4.88,25.67,6.21,1.91,.31,3.78,.61,5.66,.93,2.24,.37,4.5,.74,6.85,1.12,4.73,.76,9.71,1.91,13.99,5.19,0,0,.02,0,.02,0,.16-.08,.31-.11,.45-.12-3.06-11.68-8.6-22.82-16.47-33.14l-.64-.83c-1.74-2.29-3.54-4.64-5.35-6.92-8.37-10.55-15.97-17.35-24.64-22.08-9.04-4.91-21.23-8.28-37.27-10.27-12.33-1.52-24.78-1.37-37,.45-6.14,.92-12.22,2.26-18.1,4.01-1.88,.55-3.72,1.34-5.51,2.1-.86,.37-1.73,.73-2.6,1.08-.45,.17-.9,.38-1.37,.58-1.64,.72-3.51,1.54-5.35,1.55-.56,0-2.01,0-2.3-1.06-.32-1.17,1.02-2.2,4.16-4.08,.32-.2,.6-.36,.78-.48,5.53-3.62,11.3-7.03,17.12-10.14,8.46-4.5,19.74-9.84,31.98-11.19,1.07-.11,2.15-.2,3.21-.29,1.82-.15,3.71-.31,5.52-.62,.16-.03,.26-.04,.31-.07,0,0,0-.07,.02-.17,.03-.69-.24-1.41-.52-2.16-.16-.39-.31-.79-.42-1.18-.45-1.58-.21-3.61,1.41-4.37,1.55-.73,3.17,.3,3.95,.79l6.04,3.84c.1-.89-.07-3.13-1.02-8.37-.11-.62-.2-1.08-.23-1.29-.2-1.55,.1-4.87,.62-6.84,.24-.9,1.03-1.69,2.03-2.03,.93-.31,1.87-.17,2.58,.39,1.75,1.38,4.07,3.46,5.33,4.99,2.01,2.44,3.39,4.61,4.85,6.91,.3,.46,.6,.94,.93,1.43,14.4-6.56,26.6-11.72,40.93-13.38,4.91-.58,9.71,.31,14.34,1.15,1.2,.22,2.4,.44,3.61,.64,1.11,.18,2.22,.38,3.33,.58,4.36,.79,8.48,1.54,12.79,1.13-8.52-14.41-23.68-22.63-38.35-30.58l-.31-.17c-4.45-2.42-9.06-4.91-13.96-6.31-7.25-2.06-13.98-.38-19.61,1.55-1.17,.39-2.33,.2-3.12-.53-.77-.72-1.04-1.82-.73-2.97,.36-1.34,.97-2.54,1.55-3.7,.37-.72,.72-1.39,1-2.1-4.03-.86-8.2-1.48-12.37-1.83-12.79-1.09-25.68,.19-38.32,3.81-14.95,4.28-25.7,10.18-33.85,18.56-5.26,5.42-8.73,11.63-12.4,18.19l-.46,.83c-1.35,2.42-2.8,4.85-4.3,7.24-.79,1.26-1.6,2.51-2.42,3.75-.17,.26-.45,.58-.76,.97-.43,.52-1.31,1.59-1.37,1.96l-1.75-.1,.1-2.09c.58-11.08,1.07-22.99,.87-35.13l-.03-2.17c-.12-8.65-.25-17.59-2.59-25.74-4.57-15.95-10.51-23.88-18.04-33.92-.79-1.05-1.58-2.11-2.4-3.21-8.39-11.31-19.39-20.69-35.68-30.42-5.94-3.55-12.4-5.64-19.04-7.64-5.45-1.63-11.41-2.12-18.22-1.5,.39,1.59,1.09,2.97,2.3,4.52,.6,.79,1.22,1.53,1.84,2.27,1.27,1.54,2.6,3.13,3.74,4.99,1.22,2.02,2.37,4.03,3.47,5.99,1.77,3.12,3.6,6.35,5.77,9.59,1.98,2.96,4.11,6.78,5.99,10.16,.42,.76,.83,1.5,1.23,2.22,.27,.47,.73,.78,1.26,.81,1.32,.1,2.68,.05,4.11,0,1.55-.05,3.15-.11,4.73,.03,1.2,.1,2.18,.84,2.58,1.9,.38,1.04,.11,2.15-.71,2.99-1.39,1.41-3.01,2.56-4.59,3.67-.91,.64-1.84,1.3-2.71,2,5.5,3.67,11.49,5.17,17.82,6.75,.97,.24,1.94,.49,2.92,.74,1.08,.28,1.89,1.05,2.12,2.06,.24,1.04-.14,2.15-1,2.91-1.2,1.06-2.61,1.83-3.97,2.58-1.01,.56-1.97,1.09-2.84,1.72-5.69,4.13-8.6,10.12-8.42,17.3,.2,8,4.35,14.98,8.22,20.91,.77,1.16,3.2,5.12,2.58,7.17-.17,.55-.52,.96-1.03,1.18-1.38,.59-2.71-1.26-3.69-2.61-.17-.24-.3-.43-.39-.53-.82-.93-1.64-1.96-2.44-2.95-1.55-1.95-3.16-3.95-4.94-5.51-1.34-1.07-2.34-2.08-3.31-3.05-1.3-1.29-2.53-2.51-4.43-3.75-10.24-6.68-21.11-10.9-32.61-15.37l-.34-.13c.56,1.31,1.19,2.63,1.81,3.9,.88,1.82,1.79,3.72,2.51,5.65,.47,1.24,.1,2.58-.93,3.4s-2.42,.89-3.53,.17c-1.5-.99-2.89-2.2-4.23-3.37-1.27-1.11-2.58-2.25-3.95-3.17-.67-.45-1.34-.89-1.99-1.34-4.19-2.84-8.14-5.52-13.36-6.29-11.45-1.71-23.57-.64-36,3.2-12.69,3.91-24,9.14-36.67,16.94-9.52,5.87-17.39,13.63-23.4,23.08,8.51-.4,18.32-.64,27.94,1.22,7.37,1.42,14.33,4.08,21.05,6.65,1.96,.75,3.94,1.51,5.93,2.23,3.99,1.46,7.62,2.69,11.65,2.92,2.05,.12,4.18-.17,6.34-.86,1.62-.52,2.75-.87,3.36-1.05,.05-.03,.12-.06,.2-.1,1.03-.5,1.98-1.02,2.99-1.57,1.21-.66,2.46-1.35,3.88-2,1.01-.47,2.23-.15,3.12,.81,.87,.95,1.09,2.22,.56,3.15-.85,1.48-1.69,2.72-2.51,3.93-.65,.97-1.27,1.89-1.89,2.9,5.84,1.32,11.41,2.44,16.58,3.33,.14,.02,.39,.06,.49,.07h0s.03-.03,.04-.03c.11-.05,.26-.13,.48-.22,.89-.37,1.69-.84,2.54-1.34,.94-.56,1.92-1.13,3.1-1.6,1.07-.42,2.26-.17,3.1,.68,.84,.84,1.1,2.06,.67,3.12-.2,.5-.44,.95-.67,1.38-.02,.03-.03,.04-.03,.06,1.04-.17,2.18-.5,3.29-.82,1.5-.44,3.06-.88,4.47-1,1.05-.08,2.05,.38,2.65,1.2,.58,.79,.7,1.8,.32,2.78-.16,.39-.35,.85-.55,1.34-.33,.79-.7,1.69-.94,2.4-.18,.53-.18,.92,0,1.14,.82,1.01,4.62,.54,6.23,.34,.5-.06,.93-.11,1.23-.13,6.52-.45,13.88-.04,21.88,1.23,7.01,1.11,12.77,5.02,16.38,8.11,1.15,.99,2.31,2.09,2.68,3.62l.15,.6-.53,.33c-2.23,1.41-5.77-.03-8.9-1.3-1.43-.58-2.78-1.13-3.7-1.27-5.19-.79-10.43-1.2-16.7-1.57-10.49-.62-21.65-.58-33.15,.1-11.78,.69-22.33,1.6-32.22,5.66-15.82,6.49-29.62,16.3-43.54,26.64-9.04,6.71-17.55,14.54-26.01,23.95-2.3,2.56-4.2,5.23-6.44,8.46-1.75,2.52-2.52,4.95-2.33,7.41,1.11,.24,2.02,.53,3.16,.89,1.86,.58,4.4,1.39,9.45,2.51,5.91,1.3,6.61,.63,8.01-.72,.52-.5,1.15-1.11,2.1-1.73,2.1-1.36,4.18-2.95,6.18-4.49,2.09-1.61,4.24-3.26,6.49-4.71,.12-.08,.22-.12,.32-.16,1.48-.47,2.92-.1,3.68,.93,.72,.97,.65,2.24-.18,3.42-.94,1.34-2.05,2.51-3.13,3.65-.9,.95-1.75,1.86-2.51,2.85l.81,.03c7.75,.29,15.08,.55,23.11,.29,5.61-.19,12.48-.84,21.01-1.98,.19-.03,.32-.03,.43-.03,.1-.09,.24-.2,.45-.36,2.01-1.51,4.02-3.06,6.04-4.63,5.23-4.05,10.64-8.23,16.32-11.88,1.08-.7,2.56-.49,3.51,.49,.96,1,1.06,2.38,.26,3.55-2.4,3.5-5.02,7.03-7.55,10.45-.86,1.16-1.72,2.32-2.57,3.47,3.47-.31,6.81-2.45,9.79-4.36,1.03-.65,2-1.27,2.97-1.82l.31-.17c1.24-.72,1.75-1,3.17-.4,2.58,1.09,1.73,3.31,1.33,4.37-.41,1.07-1.74,2.56-3.01,4-.86,.96-1.83,2.06-2.09,2.58-.5,1.04-.65,1.83-.41,2.17,.51,.72,2.99,.45,4.47,.29,.14-.02,.28-.03,.41-.04,.33-.03,.65-.06,.94-.08,10.66-.73,20.9-6.94,30.81-12.94,3.24-1.96,6.3-3.82,9.36-5.47l2.68-1.45-1.51,2.65c-3.29,5.79-5.73,12-7.25,18.48,15.13-5.26,29.18-11.32,36.71-24.91,.54-.97,1.25-2.89,2.08-5.12,2.78-7.48,6.6-17.71,12.03-17,6.59,.88,11.65,12.81,16.53,24.34,3.11,7.34,6.05,14.27,8.92,17.12,1.18,1.16,2.54,2.43,3.98,3.76,8.29,7.71,19.65,18.28,17.49,29.69-.17,.91-.44,1.82-.69,2.71-.52,1.83-1.03,3.59-.73,5.2,1.44-.47,2.92-1.05,4.34-1.61,1.3-.51,2.62-1.02,3.95-1.48Z"/>
          <polyline class="cls-4" points="203.69 521.93 204.49 520.74 234.84 476.05 235.74 474.73"/>
          <polyline class="cls-4" points="189.08 517.12 188.14 516.01 152.39 473.76 151.49 472.69"/>
        </g>
      </g>
      <path class="cls-3" d="M195.27,172.89c-3.76-12.58-55.29-10.56-95.33,0-12.06,3.18-28.28,7.58-47.13,18.67-36.91,21.71-37.61,53.71-30.52,49.42,24.68-14.93,28.73-26.13,48.28-35.75,6.84-3.36,17.38-7.43,32.02-8.88-2.93,3.87-5.86,7.74-8.79,11.61,4.25-.63,9.12-1.73,14.35-3.64,13.43-4.91,22.64-12.8,28.01-18.33-1.65,4.36-3.29,8.73-4.94,13.09,4.69-.48,11.19-1.69,18.37-4.78,9.4-4.05,15.86-9.59,19.64-13.39-6.11,12.6-8.12,19.66-6.04,21.2,1.55,1.15,5.36-.78,11.45-5.76,18.96-12.84,21.77-19.61,20.63-23.44Z"/>
      <path class="cls-3" d="M208.75,130.01c2.53-3.52-13.11-18.72-15.26-20.79-3.26-3.14-8.29-7.98-16-13.01-11.65-7.6-23.17-11.88-32.89-14.34-.28-.07-.56-.14-.84-.21-9.34-2.29-16.94-2.9-21.27-3.21-8.63-.62-24.59-1.6-43.72,4.78-23.89,7.97-46.02,24.68-54.83,49,0-1.26,19.25-7.24,21.34-8.03,14.7-5.53,16.08-6.78,22.09-8.31,15.16-3.85,16.64,.09,24.38-4.27,6.63-3.74,8.58-8.36,17.99-11.98,3.41-1.31,6.14-1.83,9.06-1.31,3.24,.58,6.12,2.49,9.39,5.57,3.49,3.28,7.51,5.69,11.64,8.1,8.32,4.85,17.44,8.33,26.9,10.13-.99-2.82-2.67-6.07-2.88-8.99,3.43,1.44,6.63,4.48,9.93,6.39,1.06,.62,10.95,4.93,10.95,5.41,2.52,.95,6.33,2.26,11.07,3.46,7.95,2.01,11.93,3.02,12.94,1.6Z"/>
      <path class="cls-3" d="M250.56,147.14c-.87,1.88-1.93,3.54-3.25,4.85-3.47,3.47-9.41,4.41-11.23-.61-1.37-3.8-.64-8.52-.97-12.5-.47-5.74-.57-11.53,.18-17.25,.96-7.37,3.27-14.36,3.24-21.85-.1-21.95-13.72-43.06-29.02-57.89-17.17-16.64-38.2-26.81-58.93-38.11,11.68-5.23,27.1-2.22,38.43,2.09,16.79,6.38,32.27,16.92,43.56,30.99,12.82,15.98,19.81,36.02,22.18,56.21,1.19,10.11,1.24,20.36,.21,30.49-.66,6.54-1.16,16.58-4.4,23.59Z"/>
    </g>
  </g>
</svg>