<?xml version="1.0" encoding="UTF-8"?>
<svg id="Capa_2" data-name="Capa 2" xmlns="http://www.w3.org/2000/svg" xmlns:xlink="http://www.w3.org/1999/xlink" viewBox="0 0 286 416">
  <defs>
    <style>
      .cls-1 {
        filter: url(#outer-glow-8);
      }

      .cls-1, .cls-2, .cls-3, .cls-4, .cls-5, .cls-6, .cls-7 {
        fill: none;
        stroke-linecap: round;
        stroke-linejoin: round;
      }

      .cls-1, .cls-2, .cls-3, .cls-4, .cls-5, .cls-7 {
        stroke: #b9faf8;
        stroke-width: 6px;
      }

      .cls-8, .cls-9, .cls-10 {
        fill: #fff;
      }

      .cls-2 {
        filter: url(#outer-glow-2);
      }

      .cls-11 {
        filter: url(#outer-glow-3);
      }

      .cls-12 {
        filter: url(#outer-glow-4);
      }

      .cls-3 {
        filter: url(#outer-glow-14);
      }

      .cls-13 {
        filter: url(#outer-glow-13);
      }

      .cls-4 {
        filter: url(#outer-glow-5);
      }

      .cls-14 {
        filter: url(#outer-glow-1);
      }

      .cls-9 {
        filter: url(#outer-glow-15);
      }

      .cls-15 {
        filter: url(#outer-glow-10);
      }

      .cls-5 {
        filter: url(#outer-glow-17);
      }

      .cls-6 {
        stroke: #fff;
        stroke-width: 2px;
      }

      .cls-16 {
        filter: url(#outer-glow-18);
      }

      .cls-17 {
        filter: url(#outer-glow-7);
      }

      .cls-18 {
        filter: url(#outer-glow-12);
      }

      .cls-10 {
        filter: url(#outer-glow-9);
      }

      .cls-19 {
        filter: url(#outer-glow-16);
      }

      .cls-7 {
        filter: url(#outer-glow-11);
      }

      .cls-20 {
        filter: url(#outer-glow-6);
      }
    </style>
    <filter id="outer-glow-1" filterUnits="userSpaceOnUse">
      <feOffset dx="0" dy="0"/>
      <feGaussianBlur result="blur" stdDeviation="8"/>
      <feFlood flood-color="#b9faf8" flood-opacity=".3"/>
      <feComposite in2="blur" operator="in"/>
      <feComposite in="SourceGraphic"/>
    </filter>
    <filter id="outer-glow-2" filterUnits="userSpaceOnUse">
      <feOffset dx="0" dy="0"/>
      <feGaussianBlur result="blur-2" stdDeviation="3"/>
      <feFlood flood-color="#b9faf8" flood-opacity=".65"/>
      <feComposite in2="blur-2" operator="in"/>
      <feComposite in="SourceGraphic"/>
    </filter>
    <filter id="outer-glow-3" filterUnits="userSpaceOnUse">
      <feOffset dx="0" dy="0"/>
      <feGaussianBlur result="blur-3" stdDeviation="2"/>
      <feFlood flood-color="#fff" flood-opacity=".65"/>
      <feComposite in2="blur-3" operator="in"/>
      <feComposite in="SourceGraphic"/>
    </filter>
    <filter id="outer-glow-4" filterUnits="userSpaceOnUse">
      <feOffset dx="0" dy="0"/>
      <feGaussianBlur result="blur-4" stdDeviation="8"/>
      <feFlood flood-color="#b9faf8" flood-opacity=".3"/>
      <feComposite in2="blur-4" operator="in"/>
      <feComposite in="SourceGraphic"/>
    </filter>
    <filter id="outer-glow-5" filterUnits="userSpaceOnUse">
      <feOffset dx="0" dy="0"/>
      <feGaussianBlur result="blur-5" stdDeviation="3"/>
      <feFlood flood-color="#b9faf8" flood-opacity=".65"/>
      <feComposite in2="blur-5" operator="in"/>
      <feComposite in="SourceGraphic"/>
    </filter>
    <filter id="outer-glow-6" filterUnits="userSpaceOnUse">
      <feOffset dx="0" dy="0"/>
      <feGaussianBlur result="blur-6" stdDeviation="2"/>
      <feFlood flood-color="#fff" flood-opacity=".65"/>
      <feComposite in2="blur-6" operator="in"/>
      <feComposite in="SourceGraphic"/>
    </filter>
    <filter id="outer-glow-7" filterUnits="userSpaceOnUse">
      <feOffset dx="0" dy="0"/>
      <feGaussianBlur result="blur-7" stdDeviation="8"/>
      <feFlood flood-color="#b9faf8" flood-opacity=".3"/>
      <feComposite in2="blur-7" operator="in"/>
      <feComposite in="SourceGraphic"/>
    </filter>
    <filter id="outer-glow-8" filterUnits="userSpaceOnUse">
      <feOffset dx="0" dy="0"/>
      <feGaussianBlur result="blur-8" stdDeviation="3"/>
      <feFlood flood-color="#b9faf8" flood-opacity=".65"/>
      <feComposite in2="blur-8" operator="in"/>
      <feComposite in="SourceGraphic"/>
    </filter>
    <filter id="outer-glow-9" filterUnits="userSpaceOnUse">
      <feOffset dx="0" dy="0"/>
      <feGaussianBlur result="blur-9" stdDeviation="2"/>
      <feFlood flood-color="#fff" flood-opacity=".65"/>
      <feComposite in2="blur-9" operator="in"/>
      <feComposite in="SourceGraphic"/>
    </filter>
    <filter id="outer-glow-10" filterUnits="userSpaceOnUse">
      <feOffset dx="0" dy="0"/>
      <feGaussianBlur result="blur-10" stdDeviation="8"/>
      <feFlood flood-color="#b9faf8" flood-opacity=".3"/>
      <feComposite in2="blur-10" operator="in"/>
      <feComposite in="SourceGraphic"/>
    </filter>
    <filter id="outer-glow-11" filterUnits="userSpaceOnUse">
      <feOffset dx="0" dy="0"/>
      <feGaussianBlur result="blur-11" stdDeviation="3"/>
      <feFlood flood-color="#b9faf8" flood-opacity=".65"/>
      <feComposite in2="blur-11" operator="in"/>
      <feComposite in="SourceGraphic"/>
    </filter>
    <filter id="outer-glow-12" filterUnits="userSpaceOnUse">
      <feOffset dx="0" dy="0"/>
      <feGaussianBlur result="blur-12" stdDeviation="2"/>
      <feFlood flood-color="#fff" flood-opacity=".65"/>
      <feComposite in2="blur-12" operator="in"/>
      <feComposite in="SourceGraphic"/>
    </filter>
    <filter id="outer-glow-13" filterUnits="userSpaceOnUse">
      <feOffset dx="0" dy="0"/>
      <feGaussianBlur result="blur-13" stdDeviation="8"/>
      <feFlood flood-color="#b9faf8" flood-opacity=".3"/>
      <feComposite in2="blur-13" operator="in"/>
      <feComposite in="SourceGraphic"/>
    </filter>
    <filter id="outer-glow-14" filterUnits="userSpaceOnUse">
      <feOffset dx="0" dy="0"/>
      <feGaussianBlur result="blur-14" stdDeviation="3"/>
      <feFlood flood-color="#b9faf8" flood-opacity=".65"/>
      <feComposite in2="blur-14" operator="in"/>
      <feComposite in="SourceGraphic"/>
    </filter>
    <filter id="outer-glow-15" filterUnits="userSpaceOnUse">
      <feOffset dx="0" dy="0"/>
      <feGaussianBlur result="blur-15" stdDeviation="2"/>
      <feFlood flood-color="#fff" flood-opacity=".65"/>
      <feComposite in2="blur-15" operator="in"/>
      <feComposite in="SourceGraphic"/>
    </filter>
    <filter id="outer-glow-16" filterUnits="userSpaceOnUse">
      <feOffset dx="0" dy="0"/>
      <feGaussianBlur result="blur-16" stdDeviation="8"/>
      <feFlood flood-color="#b9faf8" flood-opacity=".3"/>
      <feComposite in2="blur-16" operator="in"/>
      <feComposite in="SourceGraphic"/>
    </filter>
    <filter id="outer-glow-17" filterUnits="userSpaceOnUse">
      <feOffset dx="0" dy="0"/>
      <feGaussianBlur result="blur-17" stdDeviation="3"/>
      <feFlood flood-color="#b9faf8" flood-opacity=".65"/>
      <feComposite in2="blur-17" operator="in"/>
      <feComposite in="SourceGraphic"/>
    </filter>
    <filter id="outer-glow-18" filterUnits="userSpaceOnUse">
      <feOffset dx="0" dy="0"/>
      <feGaussianBlur result="blur-18" stdDeviation="2"/>
      <feFlood flood-color="#fff" flood-opacity=".65"/>
      <feComposite in2="blur-18" operator="in"/>
      <feComposite in="SourceGraphic"/>
    </filter>
  </defs>
  <g id="Capa_2-2" data-name="Capa 2">
    <g>
      <g>
        <g class="cls-14">
          <rect class="cls-2" x="164.57" y="294.25" width="109" height="109"/>
          <rect class="cls-6" x="164.57" y="294.25" width="109" height="109"/>
        </g>
        <g class="cls-11">
          <path class="cls-8" d="M244.94,330.52h-16.61v-16.62c5.55,5.55,11.16,11.17,16.61,16.62Z"/>
          <path class="cls-8" d="M245.87,335.29c-5.6,0-11.06,.01-16.53,0-4.44,0-5.86-1.44-5.86-5.96-.01-5.39-.01-10.79-.01-16.55-7.31,0-14.34-.01-21.38,0-6.12,.01-9.89,3.62-9.9,9.74-.07,17.49-.07,34.96-.01,52.44,.02,6.13,3.79,9.75,9.9,9.75,11.32,.02,22.66,.02,33.98,.02,6.28-.02,9.92-3.64,9.93-9.92,.01-12.38,.01-24.75,0-37.12,0-.74-.07-1.47-.12-2.4Zm-26.98,4.39c5.03-.09,9.23,3.95,9.29,8.95,.07,4.92-3.97,9.1-8.84,9.19-5.03,.08-9.28-3.98-9.36-8.96-.09-4.81,4.06-9.08,8.91-9.18Zm13.16,36.15c-4.35,.03-8.69,.01-13.04,.01s-8.39,.01-12.58-.01c-2.65-.02-3.49-1.03-3.09-3.65,.95-6.21,5.29-10,11.59-9.96,3.87,.03,7.82-.14,11.61,.5,4.92,.82,8.15,5.13,8.37,10.08,.1,2.19-.63,3-2.86,3.03Z"/>
        </g>
      </g>
      <g>
        <g class="cls-12">
          <rect class="cls-4" x="12.12" y="12.64" width="109" height="109"/>
          <rect class="cls-6" x="12.12" y="12.64" width="109" height="109"/>
        </g>
        <g class="cls-20">
          <path class="cls-8" d="M37.78,71.23c-1.31,0-2.33-.02-3.34,0-2.11,.05-3.86-.63-4.61-2.72-.73-2.05,.03-3.72,1.65-5.12,8.42-7.3,16.81-14.63,25.21-21.95,2.28-1.99,4.54-4,6.85-5.96,2.18-1.84,4.1-1.82,6.26,.08,10.75,9.43,21.48,18.9,32.25,28.32,1.4,1.23,2,2.66,1.38,4.4-.66,1.84-2.06,2.88-4.07,2.95-1.23,.04-2.45,0-3.96,0,0,1.87,0,3.56,0,5.26,0,6.19,.02,12.37-.03,18.56-.03,2.94-2.15,5.04-5.1,5.09-3.23,.06-6.46,.03-9.7,0-3.46-.02-5.54-2-5.61-5.47-.07-3.37,0-6.74-.02-10.11-.02-3.75-1.35-5.06-5.12-5.06-2.2,0-4.4,0-6.6,0-3.52,.01-4.96,1.46-4.98,5.04-.02,3.37,.02,6.74-.01,10.11-.03,3.46-2.06,5.47-5.54,5.49-3.03,.02-6.05,.01-9.08,0-3.73-.01-5.78-1.97-5.81-5.7-.05-6.95-.01-13.9-.01-20.85,0-.68,0-1.37,0-2.37Z"/>
        </g>
      </g>
      <g>
        <g class="cls-17">
          <rect class="cls-1" x="12.12" y="294.39" width="109" height="109"/>
          <rect class="cls-6" x="12.12" y="294.39" width="109" height="109"/>
        </g>
        <path class="cls-10" d="M45.62,333.19c-1.1-1.88-2.25-3.95-3.51-5.95-.93-1.48-2.12-1.57-2.67,.02-1.46,4.17-4.45,4.73-8.26,4.37-2.81-.26-3.4-.86-2.62-3.63,1.88-6.6,8.87-12.07,16.37-13.11,3.98-.55,7.86-.4,11.69,.61,6.21,1.64,10.5,5.59,13,10.87,3.98-1.06,7.73-2.6,11.6-2.99,8.44-.85,15.94,1.34,21.08,8.72,1.05,1.5,1.8,3.25,2.42,4.99,.72,2.03-.06,2.99-2.15,3.1-.21,.01-.43-.03-.64,0-3.73,.58-6.61-.2-8.16-4.17-.71-1.83-2.14-1.8-2.84,.06-1.43,3.81-4.09,4.45-7.74,4.18-3.98-.3-8-.07-12.26-.07,.19,.77,.3,1.36,.48,1.93,3.53,11.27,4.89,22.79,3.95,34.57-.07,.86-.17,1.71-.32,2.56-.45,2.53-1.97,3.87-4.58,3.93-2.44,.05-4.87,.02-7.31,.01-4.07-.02-5.74-2.36-4.72-6.35,1.25-4.85,2.54-9.7,3.47-14.61,1.06-5.58,1.29-11.24,.25-16.88-.18-.96-.51-1.89-.88-3.21-.81,.77-1.36,1.27-1.9,1.8-5.32,5.32-10.64,10.64-15.97,15.96-2.04,2.04-3.12,1.96-4.36-.64-3.04-6.35-2.78-12.66,.93-18.65,1.57-2.54,3.61-4.78,5.64-7.42Z"/>
      </g>
      <g>
        <g class="cls-15">
          <rect class="cls-7" x="164.57" y="12.39" width="109" height="109"/>
          <rect class="cls-6" x="164.57" y="12.39" width="109" height="109"/>
        </g>
        <g class="cls-18">
          <path class="cls-8" d="M223.91,44.38c5.94,5.93,11.76,11.75,17.7,17.68-.4,.43-.94,1.01-1.5,1.58-9.82,9.83-19.67,19.63-29.46,29.49-2.13,2.15-4.56,3.63-7.46,4.44-4.94,1.38-9.85,2.85-14.78,4.24-3.1,.88-5.15-1.04-4.29-4.18,1.54-5.59,3.14-11.17,4.92-16.69,.5-1.55,1.48-3.09,2.63-4.26,10.52-10.69,21.13-21.29,31.71-31.91,.15-.15,.35-.26,.52-.39Z"/>
          <path class="cls-8" d="M244.99,58.28c-5.84-5.82-11.66-11.62-17.28-17.21,2.26-2.42,4.42-5.16,7.01-7.39,3.25-2.8,8.12-2.46,11.28,.45,2,1.84,3.93,3.76,5.76,5.76,2.98,3.25,3.34,8.05,.55,11.3-2.22,2.6-4.92,4.79-7.33,7.09Z"/>
        </g>
      </g>
      <g>
        <g class="cls-13">
          <rect class="cls-3" x="12.12" y="153.51" width="109" height="109"/>
          <rect class="cls-6" x="12.12" y="153.51" width="109" height="109"/>
        </g>
        <path class="cls-9" d="M85.88,216.85c-2.3,0-4.6-.04-6.89,0-4.71,.1-7.79,4.09-6.61,8.67,.4,1.56,1.17,3.03,1.79,4.54,1.38,3.36,1.9,6.69-.24,9.98-2.12,3.24-5.27,3.66-8.77,3.51-15.64-.64-29.28-11.8-32.98-27.08-4.85-20.03,8.09-39.89,28.35-43.49,21.26-3.78,41.18,12.62,41.56,34.21,.1,5.6-3.68,9.53-9.31,9.65-2.3,.05-4.6,0-6.89,0Zm-19.35-35.6c-2.56,.04-4.47,1.95-4.48,4.49-.01,2.63,1.98,4.56,4.66,4.53,2.6-.03,4.42-1.87,4.43-4.49,.01-2.71-1.89-4.57-4.61-4.53Zm-17.66,17.92c2.61-.02,4.43-1.84,4.46-4.45,.03-2.71-1.86-4.59-4.57-4.56-2.57,.03-4.48,1.91-4.51,4.45-.03,2.63,1.94,4.58,4.62,4.56Zm35.6,0c2.61-.02,4.43-1.84,4.46-4.45,.03-2.71-1.86-4.59-4.57-4.56-2.57,.03-4.48,1.91-4.51,4.45-.03,2.63,1.94,4.58,4.62,4.56Zm-35.59,13.38c.04-2.62-1.74-4.52-4.32-4.59-2.7-.08-4.71,1.79-4.76,4.42-.05,2.63,1.92,4.6,4.59,4.59,2.61,0,4.45-1.81,4.49-4.42Z"/>
      </g>
      <g>
        <g class="cls-19">
          <rect class="cls-5" x="164.57" y="153.32" width="109" height="109"/>
          <rect class="cls-6" x="164.57" y="153.32" width="109" height="109"/>
        </g>
        <g class="cls-16">
          <path class="cls-8" d="M205.47,216.98v-18.35h27.2v18.35h-27.2Z"/>
          <path class="cls-8" d="M206.38,193.55c1.15-6.68,2.86-12.95,6.58-18.48,4.06-6.03,8.12-6.01,12.25,0,3.12,4.54,6,12.81,6.39,18.49h-25.22Z"/>
          <path class="cls-8" d="M231.75,222.1c-1.18,6.99-3.02,13.51-7.09,19.22-.05,.06-.09,.13-.13,.19-3.61,4.74-7.3,4.78-10.88,0-3.77-5.03-5.55-10.89-6.83-16.94-.16-.76-.26-1.52-.42-2.48h25.36Z"/>
          <path class="cls-8" d="M255.23,217.02h-17.46v-18.33h17.42c1.63,6.01,1.55,12.09,.04,18.33Z"/>
          <path class="cls-8" d="M182.92,198.65h17.48v18.32h-17.45c-1.63-6.03-1.57-12.12-.03-18.32Z"/>
          <path class="cls-8" d="M253.54,193.66h-16.43c-1-3.78-1.77-7.58-3.04-11.21-1.24-3.55-2.99-6.92-4.57-10.48,11.22,3.48,19.2,10.55,24.04,21.69Z"/>
          <path class="cls-8" d="M184.59,193.73c4.84-11.22,12.84-18.26,24.49-21.91-.84,1.47-1.7,2.55-2.12,3.79-1.86,5.42-3.63,10.87-5.33,16.35-.33,1.06-.43,1.82-1.84,1.8-4.9-.08-9.8-.03-15.2-.03Z"/>
          <path class="cls-8" d="M185.02,222.01h16.22c1.43,7.56,3.31,14.92,7.73,21.42-8.64-.62-22.76-13.3-23.96-21.42Z"/>
          <path class="cls-8" d="M236.86,222.02h16.65c-4.73,11.04-12.71,18.1-24.43,21.85,4.41-6.88,6.43-14.13,7.78-21.85Z"/>
        </g>
      </g>
    </g>
  </g>
</svg>