<?xml version="1.0" encoding="UTF-8"?>
<svg id="Capa_2" data-name="Capa 2" xmlns="http://www.w3.org/2000/svg" viewBox="0 0 808.21 482.79">
  <defs>
    <style>
      .cls-1 {
        letter-spacing: .02em;
      }

      .cls-2 {
        letter-spacing: -.19em;
      }

      .cls-3 {
        letter-spacing: 0em;
      }

      .cls-4 {
        font-family: Supercharge, Supercharge;
        font-size: 33.4px;
      }

      .cls-4, .cls-5 {
        fill: #fff;
      }

      .cls-6 {
        letter-spacing: 0em;
      }

      .cls-7 {
        letter-spacing: 0em;
      }

      .cls-8 {
        letter-spacing: 0em;
      }

      .cls-9 {
        letter-spacing: 0em;
      }

      .cls-10 {
        letter-spacing: -.02em;
      }

      .cls-11 {
        font-family: ArialMT, Arial;
        font-size: 34.66px;
        stroke: #b9faf8;
        stroke-miterlimit: 10;
        stroke-width: 2px;
      }

      .cls-11, .cls-12 {
        fill: #b9faf8;
      }

      .cls-13 {
        letter-spacing: 0em;
      }

      .cls-14 {
        letter-spacing: 0em;
      }

      .cls-15 {
        letter-spacing: -.03em;
      }

      .cls-16 {
        letter-spacing: 0em;
      }

      .cls-17 {
        letter-spacing: 0em;
      }

      .cls-18 {
        letter-spacing: -.03em;
      }

      .cls-19 {
        letter-spacing: 0em;
      }

      .cls-20 {
        letter-spacing: -.03em;
      }

      .cls-21 {
        letter-spacing: -.01em;
      }

      .cls-22 {
        letter-spacing: 0em;
      }

      .cls-23 {
        letter-spacing: 0em;
      }

      .cls-24 {
        letter-spacing: 0em;
      }

      .cls-25 {
        letter-spacing: 0em;
      }

      .cls-26 {
        letter-spacing: 0em;
      }

      .cls-27 {
        letter-spacing: .01em;
      }

      .cls-28 {
        letter-spacing: -.02em;
      }

      .cls-5 {
        font-family: MyriadPro-Regular, 'Myriad Pro';
        font-size: 23px;
      }

      .cls-29 {
        letter-spacing: 0em;
      }

      .cls-30 {
        letter-spacing: 0em;
      }

      .cls-31 {
        fill: #6e44ff;
      }

      .cls-32 {
        letter-spacing: .01em;
      }

      .cls-33 {
        letter-spacing: 0em;
      }
    </style>
  </defs>
  <g id="Capa_2-2" data-name="Capa 2">
    <g>
      <g>
        <text class="cls-4" transform="translate(43.64 90.39)"><tspan class="cls-15" x="0" y="0">P</tspan><tspan x="27.42" y="0">R</tspan><tspan class="cls-15" x="55.97" y="0">OD</tspan><tspan x="108.47" y="0">UCt</tspan><tspan class="cls-18" x="184.68" y="0">O</tspan><tspan x="209.76" y="0">R MU</tspan><tspan class="cls-2" x="309.54" y="0">L</tspan><tspan x="327.81" y="0">tIME</tspan><tspan class="cls-20" x="422.98" y="0">D</tspan><tspan x="450.4" y="0">Ia</tspan></text>
        <text class="cls-11" transform="translate(385.6 263.72)"><tspan x="0" y="0">Santiago Capador</tspan></text>
        <g>
          <g>
            <path class="cls-31" d="M381.54,100.41l-14.76,51.59h-1l-26.23-51.59h-43.71l6.88,18.49-11.83,41.32-8.88-59.81h-60.33l6.88,18.49-44.36,61.72,22.97-80.21h-42.26l-14.29,49.81h-59l14.29-49.81H46.31l9.8,26.33-25.97,90.73,32.92,45.3,18.16-75.8h58.99l-8.76,30.5,64.83,.15-28.32,45.16,69.36-66.78h-31.38l9.46-13.47h46.15l1.86,13.47h46.92l14.76-51.44h1.01l22.05,43.5,42.68-16.47,20.38-71.17h-29.66Zm-147.67,56.17l20.35-28.37,3.73,28.37h-24.07Z"/>
            <path class="cls-31" d="M441.06,100.41c-2.58,0-5.16,.39-7.74,1.15-2.58,.77-4.95,1.86-7.1,3.29-2.15,1.43-4.01,3.18-5.59,5.23-1.58,2.06-2.75,4.37-3.51,6.95l-7.88,27.52c-.77,2.58-.93,4.9-.5,6.95,.43,2.06,1.31,3.8,2.65,5.23,1.34,1.44,3.08,2.54,5.23,3.3,.77,.28,1.57,.5,2.4,.67l65.62-25.32h-43.16l2.72-9.17h58.76c1.43,0,2.79-.5,4.08-1.51,1.29-1,2.44-2.27,3.44-3.8,1-1.53,1.89-3.17,2.65-4.94,.77-1.77,1.38-3.46,1.86-5.09l3.01-10.46h-76.95Z"/>
            <path class="cls-31" d="M488.78,135.38h-4.13l49.41-18.14c.95-.35,2.08,.12,2.51,1.03h0c.18,.39,.14,.84-.11,1.19l-39.76,55.26c.94-5.05,8.51-24.85,7.05-29.67-1.33-6.88-8.41-9.74-14.98-9.67Z"/>
            <polygon class="cls-31" points="566.24 156.59 542.17 156.59 562.52 128.22 566.24 156.59"/>
            <path class="cls-31" d="M616.07,211.48l-6,15.91h-15.11l-3.17,9.05-4.61-17.78-2.7,8.1h-30.64l-3.5,5.08-3.81-15.55-3.01,10.47h-7.33l-1.56-5.4-4.29,10-3.97-16.35-2.86,12.06h-27.3l-1.59-4.76-3.65,13.01-3.17-19.84-4.13,11.59h-7.78l-3.5,12.39-4.6-29.06-5.71,16.83h-5.87l-4.13-8.74-4.28,16.83-2.7-8.41h-25.72l-3.14-11.9-6.16,17.99-3.25-5.5h-13.26l-1.7-11.64-5.71,18.63-3.81-14.6-4.44,7.62h-18.84l-2.54-3.39-4.66,6.99-4.65-18.2-4.87,22.86-4.45-8.89h-17.57l-1.9,9.32-4.24-14.61-1.48,5.93h-6.77l-3.6,13.97-7.62-28.15-6.35,14.6h-10.58l-11.64,17.42-10.3-21.67,14.25,.63-4.49-4.4,82.53-31.85,4.02,7.95h31.67l6.99-24.41,28.2-10.88c.82,.92,49.69,.3,51.99,.47l-2.58,9.03h-66.49l-7.45,25.79h119.59l9.6-13.47h46.14l1.86,13.47h39.88"/>
            <polygon class="cls-12" points="263.69 220.26 249.42 220.09 238.83 232.5 237.31 196 258.71 215.67 259.06 216 263.69 220.26"/>
          </g>
          <path class="cls-31" d="M797.88,108.13c-15.82-13.16-34.84-19.04-54.89-22.3-10.03-1.64-20.25-2.41-30.37-.98-4.7,.67-9.89,1.24-14.17,3.49-3.35,1.76-6.39,3.97-9.51,6.09,.41-1.9,.79-3.79,.94-5.77,.05-.76-.69-1.44-1.42-1.41-10.03,.32-20.35,2.9-29.34,7.4-6.29,3.13-12.55,6.37-18.62,9.93-.64,.38-1.27,.77-1.9,1.18,.2-4.87,.14-9.76,.31-14.74,.39-10.91,4.57-20.54,6.31-31.18,.77-4.71-4.13-7.38-5.9-11.42,3.79-.07,7.57,0,11.35-.1,.82-.02,1.37-.64,1.42-1.42,.48-7.22-2.44-14.43-1.58-21.56,1.05-8.72,6.39-14.73,11.89-21.13,.54-.63,.6-1.82-.29-2.23-7.09-3.23-15.79-1.88-23.14-.16-9.85,2.32-19.54,6.81-26.92,13.88-7.78,7.45-15.39,17.11-20.08,26.85-4.39,9.15-5.36,17.92-5.89,27.6-1.01-1.37-2.06-2.69-3.31-3.91-.61-.59-1.84-.56-2.23,.28-4.93,10.63-5.77,20.41-8.02,31.74h18.8l14.25,96.74,14.05,27.89c2.06,.97,4.18,1.73,6.32,2.05,4.46,.7,9.19,.7,12.62-2.61,1.67-1.62,2.11-4.47,2.45-7.2,2.22,6.07,4.2,12.22,8.02,17.56,.45,.61,1.24,.92,1.94,.5,4.34-2.62,5.83-7.08,6.68-11.81,.31,3.71,.61,7.42,1.93,10.98,2.14,5.75,8.41,6.25,13.3,8.56,6.33,2.97,8.99-1.39,10.05-6.89,.55,3.09,1.11,6.17,1.88,9.19,.77,2.98,1.78,5.19,5,6.08,6.88,1.92,13.43,2.43,19.61,6.62,6.33,4.3,8.2,10.74,12.73,16.45,.64,.81,2.2,.37,2.37-.62,3.91-22.45,2.46-44.17-8.21-64.74-5.32-10.27-12.24-19.15-21.37-26.29-.58-.47-1.19-.97-1.79-1.46,2.44,.03,4.9,.03,7.34-.04,5.04-.13,14.47,1.46,16.18-5.26,.89-3.48,2.11-16.43,9.18-9.12,1.93,1.99,3.6,3.58,6.29,4.35,.98,.28,1.68-.48,1.8-1.36,1.08-8.5-1.31-16.74-1.84-25.15,5.46,4.53,9.4,10.59,14.67,15.37,.45,.4,1.18,.59,1.72,.22,3.17-2.14,6.13-3.13,7.42-6.9,1.36-3.91-1.06-8.14-1.46-12.25,2.45,2.89,5.59,7.28,8.49,7.25,2.8-.03,6.85-3.58,8.86-5.25,5.57-4.63,10.57-9.79,15.08-15.45,1.84-2.31,3.91-4.9,5.11-7.62,1.1-2.48,2.23-6.67,5.25-7.52,.94-.28,1.47-1.66,.62-2.37Z"/>
        </g>
      </g>
      <text class="cls-5" transform="translate(0 311.44)"><tspan x="0" y="0">Hola! es genial </tspan><tspan class="cls-17" x="143.72" y="0">v</tspan><tspan x="154.56" y="0">e</tspan><tspan class="cls-1" x="166.08" y="0">r</tspan><tspan class="cls-9" x="174.15" y="0">t</tspan><tspan x="181.63" y="0">e aqui! </tspan><tspan class="cls-19" x="250.28" y="0">M</tspan><tspan x="268.91" y="0">e llamo </tspan><tspan class="cls-6" x="343.94" y="0">S</tspan><tspan x="355.34" y="0">a</tspan><tspan class="cls-24" x="366.43" y="0">n</tspan><tspan x="379.1" y="0">tiago </tspan><tspan class="cls-30" x="433.54" y="0">C</tspan><tspan x="446.72" y="0">apador pe</tspan><tspan class="cls-17" x="544.58" y="0">r</tspan><tspan x="551.88" y="0">o puedes deci</tspan><tspan class="cls-22" x="685.32" y="0">r</tspan><tspan class="cls-7" x="692.93" y="0">me Hansa, </tspan><tspan x="0" y="27.6">s</tspan><tspan class="cls-26" x="9.11" y="27.6">o</tspan><tspan class="cls-16" x="21.57" y="27.6">y un </tspan><tspan class="cls-10" x="67.6" y="27.6">P</tspan><tspan class="cls-17" x="79.46" y="27.6">r</tspan><tspan x="86.76" y="27.6">odu</tspan><tspan class="cls-27" x="125.03" y="27.6">c</tspan><tspan class="cls-3" x="135.63" y="27.6">t</tspan><tspan x="143.1" y="27.6">or </tspan><tspan class="cls-23" x="168.13" y="27.6">M</tspan><tspan x="186.69" y="27.6">ultimedia, amo los desafios además s</tspan><tspan class="cls-30" x="539.64" y="27.6">o</tspan><tspan x="552.11" y="27.6">y muy c</tspan><tspan class="cls-17" x="625.68" y="27.6">r</tspan><tspan x="632.98" y="27.6">e</tspan><tspan class="cls-24" x="644.5" y="27.6">a</tspan><tspan x="655.49" y="27.6">ti</tspan><tspan class="cls-17" x="668.49" y="27.6">v</tspan><tspan x="679.32" y="27.6">o y puedo </tspan><tspan class="cls-8" x="0" y="55.2">r</tspan><tspan x="7.29" y="55.2">esol</tspan><tspan class="cls-8" x="45.98" y="55.2">v</tspan><tspan class="cls-7" x="56.81" y="55.2">er cualquier p</tspan><tspan class="cls-17" x="188.23" y="55.2">r</tspan><tspan x="195.52" y="55.2">oblema de mane</tspan><tspan class="cls-33" x="357.25" y="55.2">r</tspan><tspan x="364.66" y="55.2">a a</tspan><tspan class="cls-3" x="391.71" y="55.2">g</tspan><tspan x="404.43" y="55.2">il e inn</tspan><tspan class="cls-30" x="467.42" y="55.2">o</tspan><tspan class="cls-24" x="479.89" y="55.2">v</tspan><tspan x="490.86" y="55.2">ado</tspan><tspan class="cls-33" x="527.54" y="55.2">r</tspan><tspan x="534.95" y="55.2">a; </tspan><tspan class="cls-22" x="555.67" y="55.2">D</tspan><tspan class="cls-7" x="571.08" y="55.2">esde muy pequeño me </tspan><tspan x="0" y="82.8">llamó la </tspan><tspan class="cls-13" x="80.02" y="82.8">a</tspan><tspan class="cls-3" x="91.01" y="82.8">t</tspan><tspan x="98.48" y="82.8">ención el mundo de la edición y la </tspan><tspan class="cls-21" x="429.33" y="82.8">f</tspan><tspan x="435.75" y="82.8">o</tspan><tspan class="cls-9" x="448.38" y="82.8">t</tspan><tspan x="455.85" y="82.8">o</tspan><tspan class="cls-3" x="468.48" y="82.8">g</tspan><tspan class="cls-33" x="481.2" y="82.8">r</tspan><tspan x="488.6" y="82.8">afía, </tspan><tspan class="cls-3" x="532.51" y="82.8">c</tspan><tspan x="542.68" y="82.8">on el paso de los años (más </tspan><tspan x="0" y="110.4">que </tspan><tspan class="cls-3" x="42.02" y="110.4">t</tspan><tspan class="cls-16" x="49.5" y="110.4">odo en la pandemia) ap</tspan><tspan class="cls-17" x="275.81" y="110.4">r</tspan><tspan x="283.1" y="110.4">endí di</tspan><tspan class="cls-17" x="348.97" y="110.4">v</tspan><tspan class="cls-7" x="359.81" y="110.4">ersas habilidades pa</tspan><tspan class="cls-33" x="552.86" y="110.4">r</tspan><tspan x="560.27" y="110.4">a aplicar en esta á</tspan><tspan class="cls-17" x="729.46" y="110.4">r</tspan><tspan x="736.75" y="110.4">ea, s</tspan><tspan class="cls-25" x="778.1" y="110.4">o</tspan><tspan x="790.57" y="110.4">y</tspan><tspan x="0" y="138">muy </tspan><tspan class="cls-8" x="47.56" y="138">v</tspan><tspan class="cls-7" x="58.4" y="138">ers</tspan><tspan class="cls-13" x="86.55" y="138">a</tspan><tspan x="97.54" y="138">til y me adap</tspan><tspan class="cls-9" x="220.36" y="138">t</tspan><tspan x="227.83" y="138">o a cualquier </tspan><tspan class="cls-3" x="355.71" y="138">c</tspan><tspan x="365.88" y="138">osa, si ne</tspan><tspan class="cls-3" x="451.99" y="138">c</tspan><tspan x="462.15" y="138">esitas una ide</tspan><tspan class="cls-24" x="592.13" y="138">n</tspan><tspan x="604.8" y="138">tidad c</tspan><tspan class="cls-17" x="670" y="138">r</tspan><tspan class="cls-7" x="677.29" y="138">e</tspan><tspan class="cls-24" x="688.82" y="138">a</tspan><tspan class="cls-14" x="699.81" y="138">ti</tspan><tspan class="cls-24" x="712.81" y="138">v</tspan><tspan x="723.78" y="138">a, un </tspan><tspan x="0" y="165.6">p</tspan><tspan class="cls-8" x="13.09" y="165.6">r</tspan><tspan x="20.38" y="165.6">odu</tspan><tspan class="cls-32" x="58.65" y="165.6">c</tspan><tspan class="cls-9" x="69.25" y="165.6">t</tspan><tspan x="76.73" y="165.6">o multimedia o una pá</tspan><tspan class="cls-3" x="292.6" y="165.6">g</tspan><tspan x="305.32" y="165.6">ina </tspan><tspan class="cls-17" x="339.43" y="165.6">w</tspan><tspan x="356.13" y="165.6">e</tspan><tspan class="cls-28" x="367.65" y="165.6">b</tspan><tspan x="380.19" y="165.6">, </tspan><tspan class="cls-17" x="389.82" y="165.6">y</tspan><tspan x="400.42" y="165.6">o </tspan><tspan class="cls-9" x="417.93" y="165.6">t</tspan><tspan x="425.4" y="165.6">e puedo </tspan><tspan class="cls-29" x="509.56" y="165.6">a</tspan><tspan x="520.46" y="165.6">yudar! </tspan></text>
    </g>
  </g>
</svg>